<svg xmlns="http://www.w3.org/2000/svg" width="150" height="1720" viewBox="0 0 150 1720"><style>.p{fill:#fbf8f0;stroke:#7f8a4e;stroke-width:.95;stroke-linejoin:round}.l{fill:none;stroke:#7f8a4e;stroke-width:.6;stroke-linecap:round;opacity:.85}.s,.s2{fill:none;stroke:#7f8a4e;stroke-width:1;stroke-linecap:round}.s{stroke-width:1.3}.vine{fill:none;stroke:#7f8a4e;stroke-width:.8;stroke-linecap:round;opacity:.4}.g{fill:none;stroke:#b0975a;stroke-width:.8}.gd{fill:#b0975a}.k{fill:#5f6a3a}.kd{fill:#7f8a4e}.v{fill:none;stroke:#7f8a4e;stroke-width:.5;stroke-linecap:round;opacity:.6}.d{fill:none;stroke:#7f8a4e;stroke-width:1.05;stroke-linecap:round}.fab{fill:#eeeedf}.fabd{fill:#7f8a4e;opacity:.09}.d2{fill:none;stroke:#7f8a4e;stroke-width:.75;stroke-linecap:round;opacity:.5}.ol{fill:#d9dcc2;stroke:#7f8a4e;stroke-width:.8}</style><path class="fab" d="M0.5 0L92.5 0C93.2 222.7 48.2 509.1 28.1 636.4C35.3 1015.8 73.2 1482 87.7 1720.5L71.9 1715.7L57.9 1716.9L43.7 1715.1L28.1 1712.1L14.9 1717L0.5 1719.5C0.5 1479.7 0.5 1014.8 0.5 636.4C0.5 509.1 0.5 222.7 0.5 0Z"/><path class="d" d="M0.5 0C0.5 222.7 0.5 509.1 0.5 636.4C0.5 1014.8 0.5 1479.7 0.5 1717.5"/><path class="d" d="M15.8 0C15.8 222.7 9.3 509.1 5.1 636.4C6.3 1013.9 12.1 1477.7 14.9 1715"/><path class="d" d="M31.2 0C31.6 222.7 16.8 509.1 9.7 636.4C11.9 1012.2 22.7 1473.9 28.1 1710.1"/><path class="d" d="M46.5 0C49.1 222.7 26.6 509.1 14.3 636.4C17.8 1013.2 35.2 1476.2 43.7 1713.1"/><path class="d" d="M61.8 0C61.2 222.7 34.4 509.1 18.9 636.4C23.6 1013.9 50.1 1477.7 57.9 1714.9"/><path class="d" d="M77.2 0C74.6 222.7 42.8 509.1 23.5 636.4C29.3 1013.5 57.6 1476.7 71.9 1713.7"/><path class="d" d="M92.5 0C93.2 222.7 48.2 509.1 28.1 636.4C35.3 1015.8 73.2 1482 87.7 1720.5"/><path class="d" d="M0.5 1717.5Q6.5 1721.5 14.9 1715Q23.9 1719 28.1 1710.1Q36.3 1717.1 43.7 1713.1Q53.1 1718.9 57.9 1714.9Q67 1718.9 71.9 1713.7Q79.9 1724.5 87.7 1720.5"/><path class="d" d="M14.3 646.4q5.4 302.5 5.6 605"/><path class="d" d="M12.5 646.4q2.3 342.9 4.5 685.9"/><path class="d" d="M17.8 646.4q6.3 242.2 8.7 484.5"/><path class="p" d="M0.5 630.4Q22.3 634.4 44.1 630.4L44.1 641.4Q22.3 645.4 0.5 641.4Z"/><path class="v" d="M2.5 635.9Q22.3 639.9 42.1 635.9"/><path class="d" d="M36.4 0q3 18 1 40"/><path class="d" d="M78.5 0q3 18 1 40"/><path class="d" d="M26.9 0q3 18 1 40"/><path class="vine" d="M90.5 4C90.5 19.8 91.4 65.8 90.2 98.7C89.1 131.6 86.3 167.1 83.6 201.3C80.8 235.5 77.4 270.4 73.8 303.9C70.2 337.5 66.1 371 62.1 402.6C58.1 434.2 53.8 465.2 49.8 493.5C45.8 521.9 41.6 548.9 38 572.8C34.4 596.6 29.3 608.2 28.1 636.4C26.9 664.6 29.7 706.2 30.8 741.8C31.9 777.4 34.1 832 34.7 850.1"/><path class="s2" d="M90.8 49.2L99.1 53.7"/><path class="p" d="M99.1 53.7Q101.2 52 101.3 52.7Q102.9 51.9 103 52.6Q104.4 52.2 104.5 52.9Q105.6 53 105.7 53.7Q106.6 54.2 106.7 54.8Q107.5 55.5 107.6 56.2Q108.3 57 108.4 57.7L109.3 59.2Q107.6 60 107.5 59.4Q105.9 60.2 105.8 59.5Q104.3 60.1 104.2 59.4Q102.8 59.9 102.7 59.2Q101.4 59.3 101.4 58.6Q100.4 58.3 100.3 57.6Q99.5 56.8 99.5 56.1L99.1 53.7Z"/><path class="v" d="M99.1 53.7Q104.3 56.3 108.4 58.8"/><path class="p" d="M96.3 52.2Q96.2 50.1 96.7 50.4Q96.8 48.9 97.3 49.2Q97.7 48.2 98.2 48.4Q98.7 47.8 99.2 48Q99.9 47.6 100.4 47.9Q101.2 47.7 101.6 48Q102.5 47.9 102.9 48.1L104.3 48.3Q104.1 49.8 103.6 49.5Q103.4 50.9 102.9 50.6Q102.7 51.9 102.2 51.7Q101.9 52.8 101.4 52.5Q100.9 53.4 100.4 53.1Q99.8 53.6 99.3 53.3Q98.5 53.4 98 53.1L96.3 52.2Z"/><path class="v" d="M96.3 52.2Q100.3 50.3 103.6 48.7"/><path class="p" d="M96.3 52.2Q98.4 52.7 98 53.1Q99.3 53.7 98.9 54.1Q99.7 54.8 99.3 55.2Q99.8 55.9 99.4 56.3Q99.5 57.1 99.1 57.4Q99 58.2 98.6 58.6Q98.4 59.4 98 59.8L97.4 61Q96.1 60.3 96.5 60Q95.3 59.3 95.7 59Q94.5 58.3 94.9 57.9Q94 57.3 94.4 56.9Q93.8 56.2 94.2 55.8Q93.9 55 94.3 54.7Q94.5 53.8 95 53.5L96.3 52.2Z"/><path class="v" d="M96.3 52.2Q97 56.6 97.3 60.3"/><path class="s2" d="M82.2 217.8L73.8 222"/><path class="p" d="M73.8 222Q74 224.7 73.3 224.4Q73.1 226.2 72.5 225.9Q72 227.2 71.4 226.9Q70.6 227.8 70 227.4Q69.1 228 68.5 227.6Q67.5 227.9 66.9 227.6Q65.8 227.8 65.2 227.5L63.5 227.3Q63.7 225.5 64.3 225.8Q64.6 224 65.2 224.3Q65.5 222.7 66.1 223Q66.6 221.6 67.2 221.9Q67.8 220.8 68.4 221.1Q69.3 220.5 69.9 220.8Q71 220.7 71.6 221L73.8 222Z"/><path class="v" d="M73.8 222Q68.6 224.5 64.3 226.9"/><path class="p" d="M76.6 220.6Q78.4 221.7 77.9 221.9Q79 222.9 78.5 223.1Q79.1 224 78.6 224.3Q78.9 225.1 78.4 225.4Q78.3 226.1 77.8 226.4Q77.5 227.1 77 227.4Q76.7 228.1 76.2 228.4L75.3 229.3Q74.2 228.4 74.7 228.1Q73.6 227.2 74.1 226.9Q73.2 226 73.7 225.8Q73 224.8 73.4 224.6Q73 223.7 73.5 223.5Q73.5 222.7 74 222.5Q74.4 221.7 74.9 221.5L76.6 220.6Z"/><path class="v" d="M76.6 220.6Q76 225 75.4 228.6"/><path class="p" d="M76.6 220.6Q75 222 74.9 221.5Q73.6 222.2 73.6 221.6Q72.5 221.9 72.4 221.4Q71.6 221.3 71.5 220.8Q70.8 220.5 70.7 219.9Q70.1 219.4 70 218.9Q69.5 218.3 69.4 217.7L68.8 216.5Q70 215.8 70.1 216.4Q71.3 215.7 71.4 216.2Q72.6 215.7 72.7 216.2Q73.8 215.8 73.8 216.4Q74.8 216.2 74.8 216.8Q75.6 217 75.7 217.6Q76.2 218.2 76.3 218.8L76.6 220.6Z"/><path class="v" d="M76.6 220.6Q72.7 218.6 69.4 216.9"/><path class="s2" d="M64.8 381.5L71.7 387.9"/><path class="p" d="M71.7 387.9Q74.2 386.8 74.1 387.4Q75.9 387 75.8 387.7Q77.2 387.7 77.1 388.4Q78.2 388.8 78.1 389.5Q78.9 390.1 78.8 390.8Q79.5 391.7 79.4 392.4Q79.9 393.3 79.8 394L80.2 395.7Q78.5 396.1 78.5 395.4Q76.8 395.8 76.9 395.1Q75.2 395.4 75.3 394.7Q73.8 394.8 73.9 394.1Q72.6 393.9 72.7 393.2Q71.8 392.6 71.9 391.9Q71.4 391 71.5 390.3L71.7 387.9Z"/><path class="v" d="M71.7 387.9Q76.2 391.6 79.6 395.1"/><path class="p" d="M69.4 385.8Q69.8 383.7 70.2 384Q70.7 382.7 71.1 383.1Q71.7 382.2 72.1 382.5Q72.8 382 73.2 382.4Q74 382.2 74.4 382.6Q75.2 382.6 75.6 382.9Q76.4 383 76.8 383.4L78 383.9Q77.5 385.3 77.1 384.9Q76.6 386.2 76.2 385.8Q75.6 387 75.2 386.7Q74.6 387.7 74.2 387.3Q73.6 388 73.2 387.6Q72.4 387.9 72 387.5Q71.2 387.4 70.8 387L69.4 385.8Z"/><path class="v" d="M69.4 385.8Q73.7 384.6 77.3 384.1"/><path class="p" d="M69.4 385.8Q71.3 386.8 70.8 387Q71.9 388 71.4 388.2Q72.1 389.1 71.6 389.3Q71.8 390.2 71.3 390.4Q71.3 391.2 70.8 391.5Q70.6 392.2 70.1 392.5Q69.7 393.3 69.2 393.5L68.3 394.5Q67.2 393.6 67.7 393.3Q66.7 392.4 67.1 392.1Q66.2 391.2 66.7 391Q65.9 390.1 66.4 389.8Q65.9 389 66.4 388.7Q66.4 387.9 66.9 387.7Q67.3 386.9 67.8 386.7L69.4 385.8Z"/><path class="v" d="M69.4 385.8Q69 390.1 68.4 393.8"/><path class="s2" d="M44.9 526.8L35.9 529.7"/><path class="p" d="M35.9 529.7Q35.7 532.4 35.2 532Q34.6 533.7 34.1 533.3Q33.4 534.5 32.8 534.1Q32 534.8 31.4 534.4Q30.4 534.8 29.9 534.4Q28.8 534.5 28.3 534.1Q27.2 534.1 26.6 533.7L24.9 533.2Q25.5 531.5 26 531.9Q26.6 530.2 27.1 530.6Q27.7 529 28.3 529.4Q28.9 528.1 29.5 528.5Q30.3 527.5 30.8 527.9Q31.8 527.4 32.3 527.8Q33.4 527.9 34 528.3L35.9 529.7Z"/><path class="v" d="M35.9 529.7Q30.4 531.4 25.8 532.9"/><path class="p" d="M38.9 528.7Q40.6 530.1 40.1 530.3Q41 531.4 40.5 531.5Q40.9 532.5 40.4 532.7Q40.5 533.5 40 533.7Q39.8 534.5 39.3 534.6Q38.9 535.3 38.3 535.5Q37.8 536.2 37.3 536.3L36.3 537.1Q35.3 536 35.9 535.9Q35 534.7 35.5 534.6Q34.7 533.5 35.3 533.3Q34.7 532.3 35.2 532.2Q34.9 531.2 35.5 531.1Q35.6 530.3 36.1 530.1Q36.6 529.5 37.2 529.3L38.9 528.7Z"/><path class="v" d="M38.9 528.7Q37.7 533 36.5 536.5"/><path class="p" d="M38.9 528.7Q37.1 529.8 37.2 529.3Q35.8 529.8 35.8 529.3Q34.7 529.4 34.7 528.8Q33.9 528.7 33.9 528.1Q33.3 527.7 33.3 527.1Q32.7 526.5 32.8 526Q32.3 525.3 32.3 524.7L31.9 523.5Q33.2 523 33.2 523.5Q34.5 523.1 34.5 523.6Q35.8 523.2 35.8 523.8Q36.9 523.6 36.9 524.1Q37.9 524.1 37.8 524.7Q38.6 525 38.5 525.6Q39 526.3 39 526.9L38.9 528.7Z"/><path class="v" d="M38.9 528.7Q35.4 526.2 32.4 523.9"/><path class="p" d="M60.4 14.4C59.4 35.9 47.8 38.2 42.9 27.3Q40.3 23.5 40.8 17.3Q38.5 11.5 39.9 7.1C41.5 -4.7 53.3 -5.9 60.4 14.4Z"/><path class="v" d="M58.4 14.7Q49.9 13.1 44.2 19.1"/><path class="p" d="M65 3.4C45.5 12.6 38 3.4 45.4 -6.1Q47.6 -10.2 53.3 -12.6Q57.4 -17.4 62 -18.2C73.2 -22.4 79.7 -12.5 65 3.4Z"/><path class="v" d="M63.8 1.7Q58.5 -4.6 56.9 -11.4"/><path class="p" d="M79.4 4C67.3 -12 74.5 -21.1 84.7 -16.5Q89 -15.4 92.3 -10.7Q97.4 -8 99.1 -3.9C105 5.5 96.9 13.9 79.4 4Z"/><path class="v" d="M80.8 2.5Q84.8 -4.7 90.1 -8.6"/><path class="p" d="M83 15.8C92.5 -4.3 103.3 -1.9 103.1 10.3Q103.8 15 100.8 20.7Q100.5 27.1 97.5 30.8C91.4 41.4 80.9 37.8 83 15.8Z"/><path class="v" d="M84.8 16.3Q92.5 17.3 98.7 17.6"/><path class="p" d="M72.6 24.2C94.1 26.4 95.5 37.2 84.2 40.9Q80.1 43.1 73.9 42.2Q68 44 63.6 42.4C51.9 40.2 51.7 29.4 72.6 24.2Z"/><path class="v" d="M72.8 26.1Q74.1 33.5 74.7 39.4"/><path class="p" d="M66.3 10.1C56.2 23.4 46.5 19.5 47.6 10.3Q47.3 6.6 50.4 2.9Q51.2 -1.9 54.2 -4.1C60.5 -10.9 69.8 -6.2 66.3 10.1Z"/><path class="v" d="M64.6 9.4Q57.5 7.6 52.2 5.5"/><path class="p" d="M74.3 7.1C60.2 -2.8 63.6 -11.6 73.1 -10.3Q76.9 -10.4 80.8 -7.3Q85.7 -6.4 88.1 -3.5C95.5 2.6 91.2 11.1 74.3 7.1Z"/><path class="v" d="M75 5.6Q76.1 -1 78.2 -5.8"/><path class="p" d="M77.1 15.8C88.9 2 97.4 6.4 94.9 16.1Q94.5 20 91 23.8Q89.4 28.8 86.2 31C79.1 38.1 71 32.8 77.1 15.8Z"/><path class="v" d="M78.6 16.6Q85.2 18.2 88.8 22.7"/><path class="p" d="M68.4 17.8C81.3 30.5 76.2 38.9 66.7 35.7Q62.8 35.1 59.3 31.3Q54.4 29.4 52.4 26C45.9 18.4 51.8 10.6 68.4 17.8Z"/><path class="v" d="M67.5 19.2Q63.8 24.8 61.6 29.8"/><path class="l" d="M62 18.9C59.3 5.4 72.5 -1.7 80.9 8.8"/><path class="l" d="M69.6 3.4C80.2 4.1 83.6 15.2 74.4 20.4"/><path class="l" d="M79.4 13.4C76.8 20.8 68.3 21.6 65.5 14.3"/><path class="l" d="M71.3 13.1L71 12.6L71.1 12.1L71.6 11.6L72.3 11.5L73.1 11.9L73.4 12.8L73.2 13.8L72.3 14.6L71.1 14.6L69.9 13.9L69.5 12.5L69.9 11.1L71.2 10.1L72.9 10.1L74.4 11.1L75 12.9L74.4 14.8L72.7 16.1L70.5 16.1L68.6 14.7L67.9 12.4L68.7 10.1"/><path class="p" d="M68.9 51.6C69.9 65.2 60.8 68.7 55.9 62.7Q53.8 61.1 55.2 58.4Q52.6 57 53.9 54.3Q51 53 51.9 50.4C52.2 42.7 61.5 40 68.9 51.6Z"/><path class="v" d="M67.3 52.1Q60.9 54.1 55.6 55.1"/><path class="p" d="M69.1 46.3C60.7 57.4 51.8 53.9 52.3 46.1Q51.1 43.2 54.7 42.4Q53.4 39.4 56.4 38.4Q55.4 35.5 57.6 34.1C62.9 28.4 71.5 32.6 69.1 46.3Z"/><path class="v" d="M67.6 45.6Q61.7 42.8 57.3 39.6"/><path class="p" d="M73.6 42.2C58.8 43.3 55.2 33.7 61.8 28.6Q63.5 26.5 66.4 27.8Q67.8 24.6 70.9 26.4Q72.2 23.1 75.1 24.2C83.4 24.5 86.2 34.3 73.6 42.2Z"/><path class="v" d="M73.1 40.5Q72.5 33.2 69.3 28.4"/><path class="p" d="M79.8 42.8C69.8 33.2 74.3 24.9 81.9 26.4Q84.7 25.9 85.3 29.2Q88.7 27.8 89.1 31.4Q92.1 30.6 93.2 33.1C98.1 39.1 93 46.9 79.8 42.8Z"/><path class="v" d="M80.6 41.5Q83.6 35.7 85.8 31"/><path class="p" d="M83.1 47.2C82.7 33.2 92.3 30 97.1 36.3Q99.5 37.8 97.6 40.7Q100.8 42 98.8 44.9Q102.5 46.1 100.7 48.9C100.1 56.7 90.2 59.2 83.1 47.2Z"/><path class="v" d="M84.8 46.7Q91.3 43.9 97 43.5"/><path class="p" d="M82.9 51.8C91 39.7 100.2 42.7 100 50.9Q101.3 53.8 97.8 54.9Q99.2 57.9 96.2 59.2Q98.2 62.4 95.2 63.8C90 70 81.1 66.3 82.9 51.8Z"/><path class="v" d="M84.5 52.4Q90.2 56.2 95.5 57.2"/><path class="p" d="M78.6 56.2C92.6 54.5 96.4 63.5 90.4 68.6Q89 71.1 86 69.6Q85 73.1 81.9 71.2Q80.6 74.1 78 73.4C70.1 73.5 67 64.2 78.6 56.2Z"/><path class="v" d="M79.2 57.8Q82.8 63.6 83.2 69.2"/><path class="p" d="M73.2 56.2C85.5 64.6 82.4 73.7 74.1 73.4Q71.3 74.2 70 71Q66.9 72.3 65.6 69.3Q62.6 70.4 61 68.2C54.6 62.9 58.5 54 73.2 56.2Z"/><path class="v" d="M72.6 57.7Q68.5 63.3 69.3 69.3"/><path class="p" d="M72.5 48.6C68 58.8 60.9 57.7 60.1 51.5Q58.8 49.5 61.3 48.1Q59.4 46 61.9 44.7Q60.4 42.6 62.1 41.1C65.2 35.7 72.2 37.4 72.5 48.6Z"/><path class="p" d="M74.4 46.1C64.3 48.4 60.9 42.2 64.9 38Q65.8 36 68.1 37Q68.8 34.8 71 35.5Q71.6 32.9 73.8 33.7C79.6 33 82.4 39.5 74.4 46.1Z"/><path class="p" d="M77.9 46.3C69.5 38.2 72.9 32.5 79.1 34.4Q81.5 34.1 81.9 36.8Q84.3 36.5 85 38.8Q87.4 38.5 88.3 40.5C92.5 45.4 88.6 50.7 77.9 46.3Z"/><path class="p" d="M79.4 49.5C82.6 39 89.9 39.1 91.6 45.1Q92.6 46.9 90.8 48.5Q93.1 50.4 90.6 52Q92.3 53.8 90.9 55.5C88.5 61.1 81.2 60.3 79.4 49.5Z"/><path class="p" d="M76.9 52.6C87.8 51.9 90.2 58.7 85.3 62.3Q83.9 63.8 81.8 62.8Q80.8 65.5 78.5 63.8Q77.5 66.4 75.4 65.3C69.3 65 67.5 58 76.9 52.6Z"/><path class="p" d="M73.8 52C80.7 60.5 76.4 66.5 70.6 64.5Q68.2 64.8 68.2 62Q65.7 62.5 65.5 59.9Q62.8 60.5 62.4 58.2C59.1 53.1 63.9 47.5 73.8 52Z"/><path class="g" d="M76.6 49L80 47.7"/><circle class="gd" cx="80" cy="47.7" r="1.1"/><path class="g" d="M76.6 48.9L79.5 47.6"/><circle class="gd" cx="79.5" cy="47.6" r="1.1"/><path class="g" d="M76.5 49.8L79 52.1"/><circle class="gd" cx="79" cy="52.1" r="1.1"/><path class="g" d="M75.4 49.8L73.9 51.4"/><circle class="gd" cx="73.9" cy="51.4" r="1.1"/><path class="g" d="M75.7 48.5L75 45.9"/><circle class="gd" cx="75" cy="45.9" r="1.1"/><path class="g" d="M76.4 48.7L78 46.7"/><circle class="gd" cx="78" cy="46.7" r="1.1"/><path class="g" d="M76.7 49.1L78.4 48.8"/><circle class="gd" cx="78.4" cy="48.8" r="1.1"/><path class="g" d="M76.3 49.9L78.1 53.1"/><circle class="gd" cx="78.1" cy="53.1" r="1.1"/><path class="g" d="M76.5 49.8L78 51.2"/><circle class="gd" cx="78" cy="51.2" r="1.1"/><path class="g" d="M76.1 48.5L76.9 45.1"/><circle class="gd" cx="76.9" cy="45.1" r="1.1"/><path class="g" d="M75.2 49.1L72 48.6"/><circle class="gd" cx="72" cy="48.6" r="1.1"/><path class="g" d="M75.3 49.6L73.1 51"/><circle class="gd" cx="73.1" cy="51" r="1.1"/><path class="g" d="M76 50L76.3 52.2"/><circle class="gd" cx="76.3" cy="52.2" r="1.1"/><path class="g" d="M76.4 48.7L77.6 47.4"/><circle class="gd" cx="77.6" cy="47.4" r="1.1"/><path class="g" d="M76.6 49.5L80.8 50.9"/><circle class="gd" cx="80.8" cy="50.9" r="1.1"/><path class="g" d="M75.2 49L70.9 47.8"/><circle class="gd" cx="70.9" cy="47.8" r="1.1"/><path class="p" d="M71.8 88.3C63.5 96.3 54.9 91.8 55.5 85.3Q55.1 82.6 57.7 80.4Q58.2 77.1 60.7 76C66 72 74.3 77 71.8 88.3Z"/><path class="v" d="M70.3 87.5Q64 85.2 60.2 81"/><path class="p" d="M76.2 84.7C65.2 84.4 62.3 75.2 67 71Q68.5 68.9 71.7 69.1Q74.3 67.2 76.7 68.2C82.9 69.2 85.4 78.6 76.2 84.7Z"/><path class="v" d="M75.8 83.1Q72.7 77.1 71.6 71.8"/><path class="p" d="M83.4 86.4C76.8 76.1 82.7 69.1 89.1 71.6Q91.9 72 93.7 75.1Q96.9 76.6 97.6 79.3C100.7 85.5 94.2 92.1 83.4 86.4Z"/><path class="p" d="M85.8 91.5C88.5 80.5 98.1 79.7 101.1 85.4Q102.8 87.5 101.8 90.6Q103.2 93.7 101.6 95.9C99.3 101.9 89.7 102.2 85.8 91.5Z"/><path class="v" d="M87.4 91.4Q94.1 91.4 99.3 89.8"/><path class="p" d="M83.3 97.5C93.5 93.2 100.3 100.5 97.8 106.4Q97.4 109.1 94.3 110.2Q92.8 113.1 90.1 113.1C84 114.8 77.6 107.1 83.3 97.5Z"/><path class="v" d="M84.4 98.8Q88.6 104.4 92.9 107.9"/><path class="p" d="M77.2 99.3C86.9 103.9 85.9 112.8 80 114.5Q77.7 115.7 75 114.2Q71.9 114.8 70.1 113C65 109.7 66.6 100.9 77.2 99.3Z"/><path class="p" d="M71.3 94.4C72 106.6 62.8 110.2 58.1 105.2Q55.7 103.5 55.7 100Q53.4 97.3 54.3 94.5C54.7 87.6 64.1 84.6 71.3 94.4Z"/><path class="v" d="M69.7 95Q62.9 96.3 57.7 98"/><path class="p" d="M75.8 88.9C67.7 92.8 63.3 88 65.8 83.6Q66.4 81.7 68.8 80.7Q70.2 78.5 72.3 78.2C77 76.5 81 81.6 75.8 88.9Z"/><path class="p" d="M80 88.4C72.8 82.3 75.5 76.2 80.8 76.6Q82.9 76.4 84.9 78.2Q87.6 78.6 88.7 80.4C92.4 84.2 89.2 90.2 80 88.4Z"/><path class="p" d="M82.3 92C84.5 83.1 90.6 83 92.2 87.8Q93.2 89.6 92.5 92.2Q93.1 94.7 92.1 96.5C90.3 101.3 84.2 101 82.3 92Z"/><path class="p" d="M80.5 95.2C89.2 92.3 92.9 97.7 89.9 101.8Q89 103.7 86.5 104.5Q84.8 106.5 82.7 106.5C77.6 107.6 74.3 102 80.5 95.2Z"/><path class="p" d="M76.4 95.4C83.5 101.8 80.7 107.4 75.4 106.4Q73.3 106.4 71.3 104.5Q68.6 103.8 67.5 102C63.9 98 67.2 92.7 76.4 95.4Z"/><path class="p" d="M74.4 92.4C73.3 101.9 66.9 102.9 64.5 98.1Q63.2 96.4 63.7 93.6Q62.6 91.1 63.5 89.1C64.7 83.9 71.1 83.4 74.4 92.4Z"/><path class="l" d="M76.2 84.8C85 85.4 87.2 94.8 79.2 98.2"/><path class="l" d="M84.5 92.2C82.2 98.6 74.7 98.8 73 92.2"/><path class="l" d="M76.5 96.5C72.4 93.6 73.4 88.2 78.4 87.7"/><path class="l" d="M75.5 89.6C78.2 87.3 81.6 88.8 81.4 92.3"/><path class="l" d="M78.2 91.5L78.5 91.4L78.8 91.6L79.1 91.9L79 92.4L78.6 92.8L78 92.9L77.4 92.6L77.1 91.9L77.3 91.1L77.9 90.5L78.8 90.5L79.7 91L80.1 92L79.8 93L78.9 93.8L77.6 93.9L76.6 93.1L76.1 91.9L76.5 90.5L77.6 89.6L79.2 89.5L80.5 90.4"/><path class="p" d="M79.7 129.6C71.5 126.3 72.1 119.4 76.9 118Q78.7 117 81 118.1Q83.5 117.5 85 118.9C89.4 121.3 88.4 128.1 79.7 129.6Z"/><path class="p" d="M83.4 131.5C79.6 123.7 84.5 119 88.9 121.1Q90.9 121.5 91.9 123.9Q94.1 125.1 94.3 127.1C95.9 131.7 90.6 136.1 83.4 131.5Z"/><path class="p" d="M84.7 136.3C88.2 128.6 94.4 129.5 95.3 134.1Q96.1 135.9 94.9 138.1Q95.3 140.5 93.9 141.9C91.5 146 85.4 144.7 84.7 136.3Z"/><path class="p" d="M81.6 140.5C90.5 138.6 93.7 144.5 90.3 148.3Q89.3 150.1 86.7 150.5Q84.8 152.4 82.7 152.1C77.6 152.6 74.8 146.5 81.6 140.5Z"/><path class="p" d="M76.9 140.7C84.1 146.2 81.7 152.7 76.6 152.7Q74.5 153.1 72.5 151.4Q69.9 151.3 68.7 149.5C65 145.9 67.9 139.6 76.9 140.7Z"/><path class="p" d="M73.6 137.3C74.7 146.7 69 149.1 65.6 144.9Q64 143.6 63.8 140.8Q62.2 138.6 62.6 136.5C62.5 131.2 68.4 129.3 73.6 137.3Z"/><path class="p" d="M74.9 131.2C67.1 135.7 62 131.1 64 126.3Q64.4 124.3 66.7 123.1Q67.9 120.7 70 120.3C74.7 118.3 79.4 123.4 74.9 131.2Z"/><path class="p" d="M80.4 132.6C75.3 128.3 77.1 124 80.9 124.3Q82.4 124.2 83.8 125.5Q85.7 125.8 86.5 127.1C89.1 129.8 86.9 133.9 80.4 132.6Z"/><path class="p" d="M82.1 135C83.2 127.7 88.3 127 90.1 130.8Q91.1 132.1 90.7 134.2Q91.5 136.2 90.8 137.7C89.7 141.7 84.5 142 82.1 135Z"/><path class="p" d="M80.5 138C86.9 136.5 89.3 140.5 86.8 143.3Q86 144.7 84.1 145Q82.8 146.4 81.3 146.3C77.5 146.7 75.5 142.5 80.5 138Z"/><path class="p" d="M77.7 138.1C82.7 142.4 80.6 147.2 76.9 147Q75.3 147.3 73.9 145.9Q72 145.7 71.3 144.3C68.8 141.5 71.2 136.9 77.7 138.1Z"/><path class="p" d="M76 135.2C74 141.9 68.9 141.9 67.7 138.1Q66.9 136.7 67.6 134.8Q67 132.9 68 131.5C69.5 127.9 74.5 128.3 76 135.2Z"/><path class="p" d="M77.7 132.5C70.9 133.9 68.7 129.7 71.5 126.9Q72.3 125.6 74.3 125.3Q75.8 123.9 77.4 124.1C81.3 123.7 83.1 128.2 77.7 132.5Z"/><path class="l" d="M82.2 140.1C75.5 141.6 71.8 135.1 77 130.8"/><path class="l" d="M74.4 136.5C74.7 131.2 80.2 129.4 82.9 133.9"/><path class="l" d="M79.3 131.5C83.1 132.7 83.5 137 79.9 138.4"/><path class="l" d="M79.2 135.6L79 135.7L78.7 135.7L78.5 135.5L78.4 135.1L78.6 134.7L79.1 134.5L79.6 134.6L80 135.1L80 135.7L79.7 136.2L79 136.5L78.2 136.3L77.7 135.7L77.7 134.8L78.2 134.1L79.1 133.7L80.1 134L80.7 134.9L80.7 135.9L80.1 136.9L78.9 137.3L77.8 136.9"/><path class="p" d="M60.5 377.7C58.7 368.8 64.4 365.8 68 369.4Q69.7 370.5 70.1 373.1Q71.9 375 71.6 377.1C72.1 382.2 66.2 384.7 60.5 377.7Z"/><path class="p" d="M59.7 384.2C67.3 378.2 72.2 381.9 70.3 387Q69.9 389.1 67.6 390.7Q66.5 393.3 64.5 394.1C59.9 396.9 55.3 392.8 59.7 384.2Z"/><path class="p" d="M55.2 386.4C65 388.1 65.6 394.4 60.4 396.4Q58.6 397.6 55.8 397Q53.1 397.9 51.1 396.9C45.8 395.4 45.7 389.1 55.2 386.4Z"/><path class="p" d="M50.3 384.3C54.8 392.7 50.3 396.9 45.7 394.1Q43.7 393.4 42.6 390.8Q40.3 389.3 39.8 387.2C37.8 382.2 42.6 378.5 50.3 384.3Z"/><path class="p" d="M48.9 379.1C45.1 387.6 39.1 386.7 38.4 381.6Q37.8 379.6 39 377.2Q38.7 374.5 40.1 372.9C42.7 368.4 48.6 369.8 48.9 379.1Z"/><path class="p" d="M51.3 375.4C42.7 379.1 38.7 374.2 41.7 369.8Q42.5 367.9 45 367Q46.6 364.8 48.7 364.6C53.7 363 57.3 368.2 51.3 375.4Z"/><path class="p" d="M56.3 374.3C47.4 370.2 48.5 364.5 54 364.1Q56.1 363.6 58.6 364.9Q61.4 364.9 63.1 366.3C67.8 369 66.2 374.6 56.3 374.3Z"/><path class="p" d="M58.1 381.1C61.8 373.7 66.8 374.8 67.1 379.4Q67.6 381.2 66.4 383.2Q66.4 385.6 65.2 386.9C62.7 390.8 57.8 389.3 58.1 381.1Z"/><path class="p" d="M54.7 383.5C62.2 385.9 62 391 57.7 392.1Q56.1 392.8 54 392Q51.7 392.5 50.3 391.5C46.2 389.7 46.9 384.6 54.7 383.5Z"/><path class="p" d="M51.9 381.4C53 389.7 48.4 391.6 45.7 387.8Q44.3 386.5 44.1 384.1Q42.8 382 43 380.2C42.8 375.5 47.5 374.1 51.9 381.4Z"/><path class="p" d="M52.7 377.9C46 381.5 42.1 377.6 44 373.8Q44.5 372.1 46.5 371.2Q47.5 369.2 49.3 368.9C53.2 367.3 56.8 371.5 52.7 377.9Z"/><path class="p" d="M56.6 377.5C50.5 371.7 53.1 366.9 57.7 367.9Q59.6 367.9 61.3 369.7Q63.6 370.4 64.6 372C67.6 375.6 64.6 380.1 56.6 377.5Z"/><path class="l" d="M55.6 386.4C48.6 384.6 48.2 376.7 55.2 375.1"/><path class="l" d="M50 379.2C52.8 374.3 58.8 375.3 59.2 380.8"/><path class="l" d="M57 376.8C60 379.8 58.4 384 54.2 383.6"/><path class="l" d="M56.9 382.6C54.4 384 51.8 382.3 52.5 379.6"/><path class="l" d="M53.1 381C52.7 379.3 53.9 378 55.5 378.7"/><path class="l" d="M55 380.6L54.7 380.7L54.5 380.5L54.3 380.2L54.5 379.8L54.8 379.5L55.4 379.5L55.8 379.9L55.9 380.5L55.7 381.1L55.1 381.5L54.3 381.4L53.7 380.8L53.5 380L53.9 379.2L54.8 378.7L55.8 378.8L56.5 379.6L56.7 380.6L56.2 381.7L55.2 382.3L53.9 382.1L53 381.2"/><path class="p" d="M35.2 544.2C31.9 533.6 38.5 529.2 43.4 533Q45.9 533.5 44.8 536.2Q47.8 536.4 46.6 539.2Q49.5 539.5 48.9 541.9C50.1 548 43.1 551.9 35.2 544.2Z"/><path class="p" d="M35.8 548.8C41 539.6 48.3 541.4 48.8 547.3Q49.8 549.3 47.4 550.3Q48.6 552.4 46.5 553.5Q48 555.7 46.1 556.9C42.6 561.7 35.5 559.4 35.8 548.8Z"/><path class="p" d="M32.8 552.4C44.3 549.6 47.9 556.1 43.2 560.8Q42.4 563.2 39.7 562Q38.8 564.5 36.3 563.6Q35.6 566.5 33.2 565.8C26.6 566.7 23.6 559.9 32.8 552.4Z"/><path class="p" d="M28.5 552.8C38.2 558.4 36.3 565.6 30 565.7Q27.8 566.8 26.8 564.2Q24.5 565.6 23.4 563.1Q21 564.7 19.8 562.5C14.8 558.8 17.3 551.9 28.5 552.8Z"/><path class="p" d="M25.3 550.3C29.1 561.4 22.6 565.9 17.4 561.9Q15.4 560.9 15.9 558.5Q13.4 557.9 13.9 555.3Q11.3 554.8 11.5 552.5C10.1 546.2 16.9 542.2 25.3 550.3Z"/><path class="p" d="M24.5 546.5C20.4 556 12.4 555.3 10.9 549.6Q9.7 547.8 11.9 546.4Q10 544.6 12.3 543.2Q9.9 541.3 12.2 539.9C15.1 534.8 23 536.2 24.5 546.5Z"/><path class="p" d="M27.7 542C17.5 544.2 14.1 537.7 18.1 533.5Q18.9 531.5 21.2 532.5Q21.7 529.8 24.1 531.1Q24.6 528.5 26.8 529.2C32.6 528.6 35.6 535.3 27.7 542Z"/><path class="p" d="M30.9 541.5C20.7 537.6 21.3 529.8 27.3 528.3Q29.1 526.9 30.6 529.3Q32.5 527.7 34 529.7Q35.9 528 37.4 529.5C42.9 532.3 41.7 540 30.9 541.5Z"/><path class="p" d="M32.9 547.1C34.6 538.2 40.2 537.8 41.9 542.5Q43.3 543.9 41.6 545.4Q42.9 546.8 41.7 548.3Q43.1 549.6 42.2 551.1C40.8 555.9 35.2 555.9 32.9 547.1Z"/><path class="p" d="M31.8 549.4C40.2 545.9 43.7 550.4 40.6 554.5Q40.3 556.5 38 555.8Q37.5 557.6 35.7 557.5Q35.4 559.6 33.5 559.4C28.7 560.9 25.6 556.2 31.8 549.4Z"/><path class="p" d="M29.1 549.7C36.3 554.9 34.4 559.7 29.5 559.1Q27.9 559.4 27.1 557.7Q25.1 558.6 24.5 556.5Q22.6 557.4 21.8 555.7C18.1 552.5 20.4 547.8 29.1 549.7Z"/><path class="p" d="M27.5 547.2C25.7 555.2 20.4 555.4 18.9 551.1Q17.9 549.8 19.3 548.5Q18.1 547.3 19.3 546Q17.8 544.7 18.9 543.4C20.3 539.1 25.6 539.3 27.5 547.2Z"/><path class="p" d="M28.8 544.9C20.9 547.6 17.9 543.1 20.8 539.6Q21.5 538.1 23.2 538.5Q23.5 536.4 25.5 537.1Q25.9 535.3 27.5 535.4C32 534.3 34.7 539.1 28.8 544.9Z"/><path class="p" d="M31.3 544.8C24.5 539.7 26.5 534.7 31.2 535.2Q33 534.5 33.5 536.6Q35.2 535.9 35.9 537.7Q37.9 536.7 38.5 538.5C42.1 541.6 39.7 546.4 31.3 544.8Z"/><path class="g" d="M30.8 547L34.1 546"/><circle class="gd" cx="34.1" cy="546" r="1.1"/><path class="g" d="M29.7 547.5L27.1 549.2"/><circle class="gd" cx="27.1" cy="549.2" r="1.1"/><path class="g" d="M30.4 547.8L30.9 549.7"/><circle class="gd" cx="30.9" cy="549.7" r="1.1"/><path class="g" d="M30.7 547.5L32.7 548.7"/><circle class="gd" cx="32.7" cy="548.7" r="1.1"/><path class="g" d="M29.8 546.9L27.5 545"/><circle class="gd" cx="27.5" cy="545" r="1.1"/><path class="g" d="M29.8 546.8L28.1 544.6"/><circle class="gd" cx="28.1" cy="544.6" r="1.1"/><path class="g" d="M30 547.8L28.6 551"/><circle class="gd" cx="28.6" cy="551" r="1.1"/><path class="g" d="M30.3 546.7L30.9 543.9"/><circle class="gd" cx="30.9" cy="543.9" r="1.1"/><path class="g" d="M30 546.7L29 543.3"/><circle class="gd" cx="29" cy="543.3" r="1.1"/><path class="g" d="M30.2 547.8L30.2 549.7"/><circle class="gd" cx="30.2" cy="549.7" r="1.1"/><path class="g" d="M29.9 546.8L27.9 544.3"/><circle class="gd" cx="27.9" cy="544.3" r="1.1"/><path class="g" d="M29.9 546.8L29 545.7"/><circle class="gd" cx="29" cy="545.7" r="1.1"/><path class="g" d="M29.7 547L28 546.2"/><circle class="gd" cx="28" cy="546.2" r="1.1"/><path class="g" d="M30.7 547.5L32.8 549"/><circle class="gd" cx="32.8" cy="549" r="1.1"/><path class="g" d="M30.7 547.5L33.3 549.4"/><circle class="gd" cx="33.3" cy="549.4" r="1.1"/><path class="g" d="M30 547.8L28.6 550.8"/><circle class="gd" cx="28.6" cy="550.8" r="1.1"/><path class="p" d="M23.5 701C35.9 697.7 40.8 705.7 36.1 711.2Q34.8 713.9 31.1 714.6Q28.5 717.4 25.6 717.2C18.4 718.3 14.1 710 23.5 701Z"/><path class="v" d="M24.2 702.4Q26.5 708.6 29.5 712.8"/><path class="p" d="M17.2 701.5C27.6 708.8 24.7 717.5 17.6 717.5Q14.7 718.1 11.8 715.9Q8.2 715.7 6.4 713.3C1.1 708.6 4.6 700.2 17.2 701.5Z"/><path class="p" d="M12.3 694.8C9.5 707.6 0.2 708.2 -2.6 701.4Q-4.3 699 -3.3 695.3Q-4.5 691.7 -3 689.1C-0.7 682.2 8.7 682.2 12.3 694.8Z"/><path class="v" d="M10.7 694.8Q4.2 693.3 -0.8 696.2"/><path class="p" d="M15.9 688.2C4.8 691.5 0.1 684.4 4 679.2Q5.1 676.8 8.4 676Q10.5 673.4 13.2 673.5C19.6 672.3 23.8 679.8 15.9 688.2Z"/><path class="p" d="M22.2 687.4C11.1 680.2 13.9 671.1 21.3 670.8Q24.3 670.1 27.4 672.4Q31.2 672.5 33.1 674.9C38.8 679.6 35.4 688.5 22.2 687.4Z"/><path class="v" d="M22.7 685.9Q25.5 679.9 25.9 674.5"/><path class="p" d="M27.3 694.7C30.7 682.7 39.9 682.5 42.3 689.1Q43.9 691.5 42.7 694.9Q43.8 698.4 42.1 700.8C39.5 707.2 30.2 706.7 27.3 694.7Z"/><path class="p" d="M19.5 698.5C28.6 701.6 28.3 708.2 23.1 709.5Q21.1 710.5 18.5 709.5Q15.7 710 14 708.7C9.1 706.5 9.9 699.9 19.5 698.5Z"/><path class="p" d="M16 695.6C16.5 705.2 10.5 707.2 7.3 702.9Q5.8 701.4 5.8 698.6Q4.3 696.3 4.8 694.2C5.1 688.9 11.3 687.4 16 695.6Z"/><path class="p" d="M17.4 691.4C9 694.9 5.1 690 7.9 685.7Q8.7 683.8 11.1 682.9Q12.7 680.8 14.8 680.6C19.7 679.1 23.2 684.3 17.4 691.4Z"/><path class="p" d="M22.5 691.6C16.9 683.8 20.8 679 25.7 681.2Q27.8 681.6 29.3 684Q31.8 685.2 32.5 687.2C35.1 691.9 30.8 696.3 22.5 691.6Z"/><path class="p" d="M23.6 695.6C28.4 686.4 34.5 687.8 34.7 693.6Q35.2 695.8 33.7 698.4Q33.7 701.4 32.1 703C29 707.9 23 705.9 23.6 695.6Z"/><path class="l" d="M26.7 691.7C26.9 700.6 17.7 703.6 13.6 695.9"/><path class="l" d="M20.1 700.7C13.5 699 12.6 691.6 19 689.3"/><path class="l" d="M15 693.2C17.6 688.8 23 689.3 24 694.2"/><path class="l" d="M21.9 691.5C24.3 694 23.3 697.5 19.8 697.6"/><path class="l" d="M21.2 696.5C19.4 697.5 17.5 696.4 17.8 694.3"/><path class="l" d="M20.2 694.4L20.3 694.7L20.2 695L19.9 695.3L19.4 695.2L18.9 694.9L18.8 694.3L19.1 693.7L19.7 693.3L20.5 693.4L21.1 694L21.3 694.9L20.9 695.8L19.9 696.3L18.8 696.1L18 695.3L17.8 694L18.4 692.9L19.6 692.3L21 692.5L22.1 693.6L22.3 695.1L21.5 696.6"/><path class="s2" d="M86.6 162C85.3 164.5 81.1 172 79.1 177C77 182 75 189.5 74.2 192"/><path class="p" d="M85.3 164.5C88.2 166.3 89.6 171.9 88.6 175.5C85.7 173.1 83.8 167.6 85.3 164.5Z"/><path class="v" d="M85.3 164.5Q87 170 88.3 174.7"/><path class="p" d="M85.3 164.5C83.5 167.4 77.9 168.9 74.2 167.8C76.7 164.9 82.2 163.1 85.3 164.5Z"/><path class="v" d="M85.3 164.5Q79.7 166 75.1 167.5"/><path class="p" d="M78.8 177.6C81.5 178.7 83.4 183.3 82.9 186.5C80.2 184.7 78 180.4 78.8 177.6Z"/><path class="v" d="M78.8 177.6Q80.9 182 82.6 185.8"/><path class="p" d="M78.8 177.6C77.4 180.1 72.8 181.6 69.6 180.9C71.6 178.3 76.1 176.5 78.8 177.6Z"/><path class="v" d="M78.8 177.6Q74.2 179.3 70.3 180.6"/><path class="p" d="M74.7 190.4C77 191.1 79 194.6 78.9 197.3C76.5 196.2 74.2 192.8 74.7 190.4Z"/><path class="v" d="M74.7 190.4Q76.9 193.8 78.6 196.8"/><path class="p" d="M74.7 190.4C73.8 192.7 70.1 194.4 67.4 194.1C68.8 191.7 72.3 189.8 74.7 190.4Z"/><path class="v" d="M74.7 190.4Q71 192.2 68 193.8"/><path class="p" d="M74.2 191.9C75.2 194.2 73.8 198.1 71.6 199.9C70.9 197.2 72.1 193.1 74.2 191.9Z"/><path class="v" d="M74.2 191.9Q72.8 195.8 71.8 199.2"/><path class="s2" d="M66.9 363.9C65.8 366.4 61.8 373.9 60 378.9C58.1 383.9 56.5 391.4 55.8 393.9"/><path class="p" d="M65.7 366.4C68.6 368.2 70 373.8 69 377.5C66.1 375 64.2 369.5 65.7 366.4Z"/><path class="v" d="M65.7 366.4Q67.5 371.9 68.7 376.6"/><path class="p" d="M65.7 366.4C64.2 369.5 58.9 371.6 55.1 370.9C57.2 367.8 62.5 365.3 65.7 366.4Z"/><path class="v" d="M65.7 366.4Q60.3 368.6 55.9 370.6"/><path class="p" d="M59.8 379.5C62.4 380.6 64.3 385.2 63.9 388.4C61.1 386.7 58.9 382.3 59.8 379.5Z"/><path class="v" d="M59.8 379.5Q61.9 383.9 63.6 387.7"/><path class="p" d="M59.8 379.5C58.8 382.2 54.4 384.5 51.2 384.3C52.7 381.4 56.9 378.8 59.8 379.5Z"/><path class="v" d="M59.8 379.5Q55.5 381.9 51.9 383.9"/><path class="p" d="M56.2 392.3C58.5 393.1 60.4 396.6 60.3 399.3C57.9 398.1 55.7 394.7 56.2 392.3Z"/><path class="v" d="M56.2 392.3Q58.3 395.8 60 398.8"/><path class="p" d="M56.2 392.3C55.8 394.7 52.4 397 49.7 397.2C50.7 394.7 53.8 392.1 56.2 392.3Z"/><path class="v" d="M56.2 392.3Q53 394.9 50.2 396.8"/><path class="p" d="M55.8 393.8C56.9 396 55.7 400 53.6 401.9C52.8 399.2 53.7 395.2 55.8 393.8Z"/><path class="v" d="M55.8 393.8Q54.6 397.8 53.8 401.3"/></svg>