<svg xmlns="http://www.w3.org/2000/svg" width="150" height="1720" viewBox="0 0 150 1720"><style>.p{fill:#fbf8f0;stroke:#7f8a4e;stroke-width:1;stroke-linejoin:round}.l,.s,.s2{fill:none;stroke:#7f8a4e;stroke-width:1;stroke-linecap:round}.s{stroke-width:1.3}.g{fill:none;stroke:#b0975a;stroke-width:.8}.gd{fill:#b0975a}.k{fill:#5f6a3a}.kd{fill:#7f8a4e}.v{fill:none;stroke:#7f8a4e;stroke-width:.7;stroke-linecap:round;opacity:.7}.d{fill:none;stroke:#7f8a4e;stroke-width:1.05;stroke-linecap:round}.fab{fill:#eeeedf}.fabd{fill:#7f8a4e;opacity:.09}.d2{fill:none;stroke:#7f8a4e;stroke-width:.75;stroke-linecap:round;opacity:.5}.ol{fill:#d9dcc2;stroke:#7f8a4e;stroke-width:.8}</style><path class="fab" d="M0.5 0L92.5 0C97.6 222.7 66 509.1 56.1 636.4C60.3 1054.1 96.3 1492.7 97.7 1680.6L86 1688.4L70.4 1685.2L55.2 1688.3L42 1696L35.2 1661.3L19.3 1653.5C17.7 1468.8 39 1042.4 45 636.4C31 509.1 -1.1 222.7 0.5 0Z"/><path class="d" d="M0.5 0C-1.1 222.7 31 509.1 45 636.4C39 1042.4 17.7 1468.8 19.3 1651.5"/><path class="d" d="M15.8 0C21 222.7 40.6 509.1 46.9 636.4C46 1045.6 31.6 1475.2 35.2 1659.3"/><path class="d" d="M31.2 0C28.9 222.7 41.8 509.1 48.7 636.4C50.7 1059.4 46.9 1503.6 42 1694"/><path class="d" d="M46.5 0C50.5 222.7 47.7 509.1 50.5 636.4C52.9 1056.4 60.9 1497.3 55.2 1686.3"/><path class="d" d="M61.8 0C66.6 222.7 52.4 509.1 52.4 636.4C54.2 1055.1 65.3 1494.8 70.4 1683.2"/><path class="d" d="M77.2 0C77.9 222.7 57.8 509.1 54.2 636.4C57.8 1056.4 82.8 1497.4 86 1686.4"/><path class="d" d="M92.5 0C97.6 222.7 66 509.1 56.1 636.4C60.3 1054.1 96.3 1492.7 97.7 1680.6"/><path class="d" d="M19.3 1651.5Q27.8 1663.3 35.2 1659.3Q38.2 1698 42 1694Q46.6 1698 55.2 1686.3Q61.6 1690.3 70.4 1683.2Q80.1 1690.4 86 1686.4Q89.1 1690.4 97.7 1680.6"/><path class="d" d="M40.3 646.4q-3.5 299.9 0.4 599.7"/><path class="d" d="M51.4 646.4q8 247.6 -3.7 495.2"/><path class="d" d="M49.8 646.4q2.1 221.7 -2.7 443.5"/><path class="p" d="M39 630.4Q50.5 634.4 62.1 630.4L62.1 641.4Q50.5 645.4 39 641.4Z"/><path class="v" d="M41 635.9Q50.5 639.9 60.1 635.9"/><path class="d" d="M37.2 0q3 18 1 40"/><path class="d" d="M62.4 0q3 18 1 40"/><path class="d" d="M35 0q3 18 1 40"/><path class="s2" d="M90.5 4C89.6 51.1 90.4 181 85.1 286.4C79.9 391.8 61.7 490.3 59.1 636.4C56.5 782.5 63.7 989.6 69.5 1163.2C75.3 1336.8 89.8 1592.2 93.9 1678"/><path class="s2" d="M90.3 16.8L98.4 21.7"/><path class="p" d="M98.4 21.7Q100.6 20.2 100.6 20.9Q102.3 20.1 102.3 20.8Q103.7 20.5 103.8 21.2Q104.9 21.4 104.9 22.1Q105.9 22.6 105.9 23.3Q106.7 24 106.8 24.7Q107.5 25.5 107.5 26.2L108.3 27.7Q106.6 28.5 106.5 27.8Q104.9 28.5 104.8 27.8Q103.2 28.4 103.2 27.7Q101.8 28.1 101.7 27.4Q100.5 27.5 100.4 26.8Q99.4 26.4 99.4 25.7Q98.7 24.8 98.6 24.1L98.4 21.7Z"/><path class="v" d="M98.4 21.7Q103.2 25 107.5 27.3"/><path class="p" d="M95.7 20.1Q95.6 18 96.1 18.3Q96.4 16.8 96.8 17.1Q97.3 16.1 97.7 16.4Q98.3 15.8 98.8 16.1Q99.5 15.7 99.9 16Q100.7 15.8 101.2 16.1Q102 16.1 102.5 16.4L103.8 16.6Q103.6 18.1 103.1 17.8Q102.8 19.2 102.4 18.9Q102.1 20.2 101.6 19.9Q101.2 21 100.7 20.7Q100.2 21.5 99.8 21.2Q99.1 21.6 98.6 21.3Q97.8 21.4 97.3 21.1L95.7 20.1Z"/><path class="v" d="M95.7 20.1Q99.7 18.2 103.2 16.9"/><path class="p" d="M95.7 20.1Q97.7 20.7 97.3 21.1Q98.6 21.8 98.2 22.1Q99 22.9 98.5 23.2Q98.9 24 98.5 24.3Q98.6 25.1 98.2 25.4Q98.1 26.2 97.7 26.6Q97.5 27.4 97 27.7L96.4 28.9Q95.1 28.2 95.5 27.9Q94.3 27.2 94.7 26.8Q93.6 26.1 94 25.8Q93.1 25 93.5 24.7Q92.9 23.9 93.4 23.6Q93.1 22.8 93.6 22.5Q93.8 21.7 94.3 21.3L95.7 20.1Z"/><path class="v" d="M95.7 20.1Q96.2 24.5 96.3 28.2"/><path class="s2" d="M90 55.6L82.1 60.8"/><path class="p" d="M82.1 60.8Q82.6 63.4 81.9 63.2Q81.9 65 81.3 64.8Q80.9 66.1 80.2 65.9Q79.6 66.8 79 66.6Q78.1 67.2 77.5 66.9Q76.5 67.3 75.9 67.1Q74.8 67.4 74.2 67.1L72.4 67.1Q72.5 65.3 73.1 65.5Q73.2 63.7 73.8 64Q74 62.3 74.6 62.6Q74.9 61.1 75.6 61.3Q76.1 60.2 76.7 60.5Q77.5 59.7 78.1 60Q79.2 59.7 79.8 60L82.1 60.8Z"/><path class="v" d="M82.1 60.8Q77.2 63.8 73.2 66.6"/><path class="p" d="M84.7 59.1Q86.7 59.9 86.2 60.2Q87.4 61.1 86.9 61.4Q87.7 62.2 87.2 62.5Q87.5 63.3 87 63.6Q87.1 64.4 86.6 64.7Q86.4 65.5 85.9 65.7Q85.6 66.5 85.2 66.8L84.4 67.9Q83.2 67 83.7 66.8Q82.5 65.9 83 65.6Q81.9 64.8 82.4 64.5Q81.6 63.7 82.1 63.4Q81.5 62.6 82 62.3Q81.9 61.5 82.3 61.2Q82.7 60.4 83.2 60.1L84.7 59.1Z"/><path class="v" d="M84.7 59.1Q84.5 63.5 84.4 67.2"/><path class="p" d="M84.7 59.1Q83.3 60.6 83.2 60.1Q82 60.9 81.8 60.4Q80.8 60.8 80.7 60.3Q79.8 60.3 79.7 59.8Q79 59.6 78.8 59Q78.2 58.6 78 58.1Q77.4 57.5 77.3 57L76.5 55.9Q77.7 55 77.8 55.6Q79 54.8 79.1 55.3Q80.2 54.6 80.4 55.1Q81.4 54.6 81.5 55.2Q82.5 54.9 82.6 55.5Q83.4 55.6 83.5 56.1Q84.1 56.7 84.3 57.3L84.7 59.1Z"/><path class="v" d="M84.7 59.1Q80.6 57.6 77.2 56.1"/><path class="s2" d="M89.6 105.1L98 109.5"/><path class="p" d="M98 109.5Q100.1 107.8 100.1 108.5Q101.8 107.7 101.9 108.4Q103.2 108 103.3 108.7Q104.4 108.8 104.5 109.5Q105.5 109.9 105.6 110.6Q106.4 111.3 106.5 112Q107.2 112.8 107.3 113.5L108.2 115Q106.5 115.8 106.5 115.1Q104.8 115.9 104.7 115.2Q103.2 115.9 103.1 115.2Q101.7 115.7 101.6 115Q100.4 115.1 100.3 114.4Q99.3 114.1 99.2 113.4Q98.4 112.6 98.4 111.9L98 109.5Z"/><path class="v" d="M98 109.5Q103.2 112.1 107.4 114.5"/><path class="p" d="M95.2 108.1Q95 105.9 95.5 106.2Q95.7 104.8 96.1 105Q96.5 104 97 104.3Q97.6 103.6 98 103.9Q98.7 103.5 99.2 103.7Q100 103.5 100.5 103.8Q101.3 103.7 101.8 104L103.1 104.1Q102.9 105.6 102.4 105.3Q102.3 106.7 101.8 106.4Q101.5 107.8 101.1 107.5Q100.7 108.6 100.3 108.3Q99.8 109.2 99.3 108.9Q98.7 109.4 98.2 109.1Q97.3 109.2 96.9 108.9L95.2 108.1Z"/><path class="v" d="M95.2 108.1Q99.1 106.1 102.5 104.5"/><path class="p" d="M95.2 108.1Q97.3 108.6 96.9 109Q98.2 109.6 97.8 109.9Q98.6 110.6 98.2 111Q98.7 111.7 98.2 112.1Q98.4 112.9 98 113.3Q97.9 114.1 97.5 114.4Q97.4 115.2 97 115.6L96.3 116.8Q95 116.2 95.5 115.8Q94.2 115.2 94.6 114.8Q93.4 114.2 93.8 113.8Q92.9 113.1 93.3 112.8Q92.6 112 93.1 111.7Q92.8 110.9 93.2 110.5Q93.4 109.7 93.8 109.4L95.2 108.1Z"/><path class="v" d="M95.2 108.1Q96 112.4 96.3 116.1"/><path class="s2" d="M88.9 161.5L80.4 165.7"/><path class="p" d="M80.4 165.7Q80.6 168.3 80 168Q79.7 169.8 79.1 169.5Q78.6 170.8 78 170.5Q77.3 171.3 76.6 171Q75.7 171.5 75.1 171.2Q74.1 171.5 73.5 171.1Q72.4 171.3 71.8 171L70.1 170.8Q70.4 168.9 71 169.3Q71.2 167.5 71.9 167.8Q72.2 166.2 72.8 166.5Q73.3 165.1 73.9 165.4Q74.5 164.3 75.1 164.7Q76 164 76.6 164.4Q77.7 164.3 78.3 164.6L80.4 165.7Z"/><path class="v" d="M80.4 165.7Q75.2 168 70.9 170.4"/><path class="p" d="M83.3 164.3Q85.1 165.4 84.6 165.6Q85.7 166.6 85.2 166.8Q85.8 167.7 85.3 168Q85.5 168.8 85 169Q84.9 169.8 84.4 170.1Q84.2 170.8 83.7 171Q83.3 171.8 82.8 172L81.8 173Q80.8 172 81.3 171.8Q80.2 170.8 80.7 170.6Q79.8 169.6 80.3 169.4Q79.6 168.5 80.1 168.2Q79.7 167.3 80.2 167.1Q80.2 166.3 80.7 166.1Q81.1 165.3 81.6 165.1L83.3 164.3Z"/><path class="v" d="M83.3 164.3Q82.3 168.6 82 172.3"/><path class="p" d="M83.3 164.3Q81.6 165.6 81.6 165.1Q80.3 165.8 80.2 165.3Q79.2 165.5 79.1 165Q78.3 164.9 78.2 164.4Q77.5 164.1 77.4 163.5Q76.8 163 76.7 162.4Q76.2 161.8 76.1 161.3L75.5 160.1Q76.8 159.4 76.8 160Q78.1 159.3 78.1 159.8Q79.4 159.3 79.4 159.8Q80.5 159.4 80.6 160Q81.5 159.9 81.6 160.4Q82.4 160.7 82.4 161.2Q83 161.9 83 162.4L83.3 164.3Z"/><path class="v" d="M83.3 164.3Q79.4 162.1 76.1 160.4"/><path class="s2" d="M87.6 221.1L95.1 226.8"/><path class="p" d="M95.1 226.8Q97.4 225.5 97.4 226.2Q99.2 225.7 99.1 226.3Q100.5 226.2 100.5 226.9Q101.6 227.2 101.6 227.9Q102.4 228.5 102.4 229.2Q103.1 230 103.1 230.7Q103.7 231.6 103.7 232.3L104.2 233.9Q102.5 234.5 102.5 233.8Q100.8 234.3 100.8 233.6Q99.2 234 99.2 233.3Q97.7 233.5 97.7 232.8Q96.5 232.8 96.5 232.1Q95.6 231.6 95.6 230.9Q95 229.9 95.1 229.2L95.1 226.8Z"/><path class="v" d="M95.1 226.8Q99.8 230.1 103.5 233.4"/><path class="p" d="M92.6 224.9Q92.8 222.8 93.2 223.1Q93.6 221.7 94.1 222.1Q94.6 221.1 95 221.5Q95.7 220.9 96.1 221.3Q96.9 221 97.3 221.3Q98.1 221.3 98.5 221.6Q99.4 221.6 99.8 222L101.1 222.4Q100.6 223.8 100.2 223.4Q99.8 224.8 99.4 224.4Q98.9 225.7 98.5 225.3Q98 226.4 97.5 226Q96.9 226.8 96.5 226.5Q95.8 226.8 95.4 226.5Q94.5 226.4 94.1 226.1L92.6 224.9Z"/><path class="v" d="M92.6 224.9Q96.8 223.6 100.4 222.6"/><path class="p" d="M92.6 224.9Q94.5 225.8 94.1 226.1Q95.3 226.9 94.8 227.2Q95.5 228 95.1 228.3Q95.4 229.1 94.9 229.4Q94.9 230.2 94.5 230.5Q94.3 231.3 93.8 231.6Q93.5 232.4 93.1 232.7L92.3 233.7Q91.1 232.9 91.6 232.6Q90.4 231.8 90.9 231.5Q89.8 230.6 90.3 230.3Q89.5 229.5 89.9 229.2Q89.4 228.4 89.9 228.1Q89.8 227.3 90.2 227Q90.6 226.3 91 226L92.6 224.9Z"/><path class="v" d="M92.6 224.9Q92.2 229.3 92.3 233"/><path class="s2" d="M85.4 280L76.8 283.8"/><path class="p" d="M76.8 283.8Q76.8 286.5 76.2 286.1Q75.9 287.9 75.3 287.6Q74.7 288.8 74.1 288.5Q73.3 289.3 72.7 288.9Q71.8 289.4 71.2 289Q70.1 289.3 69.6 288.9Q68.5 289 67.9 288.6L66.2 288.4Q66.5 286.6 67.1 286.9Q67.5 285.2 68.1 285.5Q68.5 283.9 69.1 284.2Q69.6 282.8 70.2 283.2Q70.9 282.2 71.5 282.5Q72.4 281.9 73 282.3Q74.1 282.2 74.7 282.6L76.8 283.8Z"/><path class="v" d="M76.8 283.8Q71.5 286.1 67 288"/><path class="p" d="M79.7 282.5Q81.4 283.7 80.9 283.9Q82 285 81.4 285.2Q82 286.1 81.5 286.3Q81.7 287.2 81.2 287.4Q81.1 288.2 80.5 288.4Q80.2 289.1 79.7 289.3Q79.3 290 78.8 290.2L77.8 291.1Q76.8 290.1 77.3 289.9Q76.3 288.9 76.8 288.7Q75.9 287.7 76.5 287.5Q75.8 286.5 76.3 286.3Q75.9 285.4 76.4 285.2Q76.4 284.4 77 284.2Q77.4 283.5 77.9 283.3L79.7 282.5Z"/><path class="v" d="M79.7 282.5Q78.5 286.8 77.9 290.5"/><path class="p" d="M79.7 282.5Q78 283.8 77.9 283.3Q76.6 283.9 76.6 283.4Q75.5 283.6 75.5 283Q74.6 282.9 74.6 282.4Q73.9 282 73.9 281.5Q73.3 280.9 73.2 280.4Q72.7 279.7 72.7 279.2L72.1 278Q73.4 277.3 73.4 277.9Q74.7 277.3 74.8 277.8Q76 277.3 76 277.9Q77.1 277.6 77.2 278.1Q78.1 278.1 78.2 278.6Q78.9 278.9 79 279.4Q79.5 280.1 79.5 280.7L79.7 282.5Z"/><path class="v" d="M79.7 282.5Q75.9 280.2 72.7 278.3"/><path class="s2" d="M81.7 336.7L89.1 342.6"/><path class="p" d="M89.1 342.6Q91.5 341.3 91.4 342Q93.2 341.5 93.1 342.2Q94.5 342.1 94.5 342.8Q95.6 343.1 95.5 343.8Q96.4 344.4 96.4 345.1Q97 345.9 97 346.6Q97.6 347.5 97.5 348.2L98.1 349.9Q96.3 350.4 96.4 349.7Q94.6 350.2 94.7 349.5Q93 349.9 93.1 349.2Q91.6 349.4 91.6 348.7Q90.4 348.5 90.4 347.8Q89.5 347.3 89.5 346.7Q89 345.7 89 345L89.1 342.6Z"/><path class="v" d="M89.1 342.6Q93.7 346.1 97.4 349.3"/><path class="p" d="M86.6 340.6Q86.9 338.5 87.3 338.9Q87.7 337.5 88.2 337.8Q88.7 336.9 89.1 337.2Q89.8 336.7 90.2 337Q91 336.8 91.4 337.1Q92.2 337.1 92.6 337.4Q93.5 337.5 93.9 337.8L95.1 338.3Q94.7 339.6 94.3 339.3Q93.8 340.6 93.4 340.3Q92.9 341.5 92.5 341.2Q92 342.2 91.6 341.9Q90.9 342.6 90.5 342.2Q89.8 342.6 89.4 342.2Q88.5 342.2 88.1 341.8L86.6 340.6Z"/><path class="v" d="M86.6 340.6Q90.9 339.3 94.5 338.5"/><path class="p" d="M86.6 340.6Q88.6 341.5 88.1 341.8Q89.3 342.7 88.8 343Q89.5 343.8 89 344.1Q89.3 344.9 88.9 345.2Q88.9 346 88.4 346.3Q88.2 347 87.7 347.3Q87.4 348.1 86.9 348.4L86.1 349.4Q85 348.6 85.4 348.3Q84.3 347.4 84.8 347.1Q83.8 346.3 84.2 346Q83.4 345.2 83.9 344.9Q83.4 344.1 83.9 343.8Q83.8 343 84.2 342.7Q84.6 341.9 85.1 341.6L86.6 340.6Z"/><path class="v" d="M86.6 340.6Q86.4 345 86.2 348.7"/><path class="s2" d="M76.4 393.6L68.2 398.2"/><path class="p" d="M68.2 398.2Q68.5 400.9 67.8 400.6Q67.7 402.4 67 402.1Q66.6 403.5 65.9 403.2Q65.3 404.1 64.6 403.8Q63.8 404.3 63.1 404Q62.1 404.4 61.5 404.1Q60.4 404.3 59.8 404L58.1 403.8Q58.2 402 58.9 402.3Q59.1 400.5 59.7 400.8Q60 399.2 60.6 399.5Q61 398 61.6 398.3Q62.2 397.2 62.8 397.5Q63.6 396.8 64.2 397.1Q65.3 397 66 397.3L68.2 398.2Z"/><path class="v" d="M68.2 398.2Q63.1 401.1 58.9 403.4"/><path class="p" d="M70.9 396.7Q72.8 397.7 72.3 398Q73.4 398.9 72.9 399.1Q73.6 400 73.1 400.3Q73.4 401.1 72.9 401.4Q72.9 402.2 72.4 402.4Q72.1 403.2 71.6 403.4Q71.3 404.2 70.8 404.5L69.9 405.5Q68.8 404.5 69.3 404.3Q68.2 403.4 68.7 403.1Q67.7 402.2 68.2 401.9Q67.5 401.1 67.9 400.8Q67.5 399.9 68 399.7Q67.9 398.9 68.4 398.6Q68.8 397.9 69.3 397.6L70.9 396.7Z"/><path class="v" d="M70.9 396.7Q70.2 401.1 70 404.8"/><path class="p" d="M70.9 396.7Q69.3 398.1 69.3 397.6Q68 398.4 67.9 397.8Q66.9 398.2 66.8 397.6Q65.9 397.6 65.9 397.1Q65.1 396.8 65 396.2Q64.4 395.7 64.3 395.2Q63.7 394.6 63.6 394.1L62.9 392.9Q64.2 392.2 64.3 392.7Q65.5 392 65.6 392.5Q66.7 391.9 66.8 392.4Q67.9 392 68 392.6Q68.9 392.4 69 392.9Q69.8 393.1 69.9 393.7Q70.5 394.3 70.6 394.8L70.9 396.7Z"/><path class="v" d="M70.9 396.7Q66.9 394.9 63.6 393.2"/><path class="s2" d="M70.5 452.9L78.7 457.4"/><path class="p" d="M78.7 457.4Q80.8 455.7 80.9 456.4Q82.6 455.6 82.7 456.3Q84 455.9 84.1 456.6Q85.2 456.7 85.3 457.4Q86.3 457.9 86.3 458.6Q87.2 459.2 87.2 459.9Q88 460.7 88.1 461.4L88.9 462.9Q87.2 463.8 87.2 463.1Q85.5 463.9 85.5 463.2Q83.9 463.8 83.8 463.2Q82.4 463.6 82.3 462.9Q81.1 463 81 462.3Q80 462 79.9 461.3Q79.2 460.5 79.1 459.8L78.7 457.4Z"/><path class="v" d="M78.7 457.4Q84 459.9 88.1 462.5"/><path class="p" d="M76 455.9Q75.8 453.8 76.3 454Q76.5 452.6 77 452.9Q77.4 451.8 77.8 452.1Q78.4 451.4 78.9 451.7Q79.6 451.3 80 451.6Q80.8 451.4 81.3 451.7Q82.1 451.6 82.6 451.9L83.9 452.1Q83.7 453.5 83.3 453.2Q83.1 454.6 82.6 454.3Q82.3 455.6 81.9 455.4Q81.5 456.5 81 456.2Q80.6 457.1 80.1 456.8Q79.4 457.3 79 457Q78.1 457.1 77.6 456.8L76 455.9Z"/><path class="v" d="M76 455.9Q79.9 453.8 83.3 452.4"/><path class="p" d="M76 455.9Q78 456.4 77.6 456.8Q78.9 457.4 78.5 457.8Q79.4 458.5 79 458.9Q79.4 459.6 79 460Q79.1 460.7 78.7 461.1Q78.7 461.9 78.2 462.3Q78.1 463.1 77.7 463.5L77 464.6Q75.7 464 76.2 463.6Q74.9 463 75.3 462.6Q74.2 462 74.6 461.6Q73.6 460.9 74 460.6Q73.4 459.8 73.8 459.5Q73.6 458.7 74 458.4Q74.2 457.5 74.6 457.2L76 455.9Z"/><path class="v" d="M76 455.9Q76.4 460.3 77 463.9"/><path class="s2" d="M64.9 516.3L56.5 520.6"/><path class="p" d="M56.5 520.6Q56.7 523.3 56.1 523Q55.8 524.8 55.2 524.5Q54.7 525.8 54.1 525.5Q53.4 526.3 52.8 526Q51.9 526.6 51.3 526.2Q50.2 526.5 49.6 526.2Q48.5 526.4 47.9 526.1L46.2 525.9Q46.4 524.1 47.1 524.4Q47.3 522.6 47.9 522.9Q48.2 521.3 48.9 521.6Q49.3 520.2 49.9 520.5Q50.5 519.4 51.1 519.7Q52 519.1 52.6 519.4Q53.7 519.3 54.3 519.6L56.5 520.6Z"/><path class="v" d="M56.5 520.6Q51.4 523.4 47 525.5"/><path class="p" d="M59.3 519.2Q61.1 520.2 60.6 520.5Q61.7 521.4 61.2 521.7Q61.8 522.6 61.4 522.8Q61.6 523.6 61.1 523.9Q61 524.7 60.5 524.9Q60.3 525.7 59.8 525.9Q59.4 526.7 58.9 526.9L58 527.9Q56.9 526.9 57.4 526.7Q56.4 525.7 56.8 525.5Q55.9 524.6 56.4 524.3Q55.7 523.4 56.2 523.2Q55.7 522.3 56.2 522.1Q56.2 521.3 56.7 521Q57.1 520.3 57.6 520L59.3 519.2Z"/><path class="v" d="M59.3 519.2Q58.8 523.6 58.1 527.2"/><path class="p" d="M59.3 519.2Q57.7 520.6 57.6 520Q56.3 520.7 56.3 520.2Q55.2 520.5 55.1 520Q54.3 519.9 54.2 519.4Q53.5 519.1 53.4 518.5Q52.8 518 52.7 517.5Q52.1 516.9 52 516.3L51.4 515.1Q52.7 514.4 52.7 515Q54 514.3 54 514.8Q55.2 514.2 55.3 514.8Q56.4 514.4 56.5 514.9Q57.4 514.8 57.5 515.3Q58.3 515.6 58.3 516.1Q58.9 516.8 59 517.3L59.3 519.2Z"/><path class="v" d="M59.3 519.2Q55.4 516.9 52 515.5"/><path class="s2" d="M60.6 585.8L68.7 590.7"/><path class="p" d="M68.7 590.7Q70.9 589.1 70.9 589.8Q72.6 589 72.7 589.7Q74 589.5 74.1 590.1Q75.2 590.3 75.3 591Q76.2 591.5 76.2 592.2Q77 592.9 77.1 593.6Q77.8 594.4 77.8 595.1L78.6 596.7Q76.9 597.4 76.9 596.7Q75.2 597.4 75.1 596.7Q73.6 597.3 73.5 596.7Q72.1 597 72 596.3Q70.8 596.4 70.7 595.7Q69.7 595.3 69.7 594.6Q69 593.7 68.9 593L68.7 590.7Z"/><path class="v" d="M68.7 590.7Q73.7 593.5 77.8 596.2"/><path class="p" d="M66 589Q66 586.9 66.4 587.2Q66.7 585.8 67.1 586.1Q67.6 585.1 68 585.3Q68.6 584.7 69.1 585Q69.8 584.6 70.3 584.9Q71.1 584.8 71.5 585.1Q72.4 585 72.8 585.3L74.1 585.6Q73.9 587 73.4 586.7Q73.1 588.1 72.7 587.8Q72.4 589.1 71.9 588.8Q71.5 589.9 71 589.6Q70.5 590.4 70.1 590.1Q69.4 590.6 68.9 590.3Q68.1 590.3 67.6 590L66 589Z"/><path class="v" d="M66 589Q70 587.1 73.5 585.8"/><path class="p" d="M66 589Q68 589.7 67.6 590Q68.9 590.7 68.5 591.1Q69.3 591.8 68.8 592.1Q69.3 592.9 68.8 593.2Q68.9 594 68.5 594.4Q68.4 595.2 68 595.5Q67.8 596.3 67.3 596.7L66.7 597.8Q65.4 597.1 65.8 596.8Q64.6 596.1 65 595.7Q63.9 595 64.3 594.7Q63.4 594 63.9 593.6Q63.2 592.9 63.7 592.5Q63.5 591.7 63.9 591.4Q64.1 590.6 64.6 590.2L66 589Z"/><path class="v" d="M66 589Q66.6 593.4 66.6 597.1"/><path class="s2" d="M58.7 663.3L50.9 668.6"/><path class="p" d="M50.9 668.6Q51.4 671.2 50.7 671Q50.7 672.8 50.1 672.6Q49.7 674 49.1 673.7Q48.4 674.7 47.8 674.4Q47 675 46.3 674.8Q45.3 675.2 44.7 675Q43.6 675.3 43 675L41.3 675Q41.3 673.2 41.9 673.5Q42 671.6 42.6 671.9Q42.8 670.2 43.4 670.5Q43.7 669 44.3 669.2Q44.8 668.1 45.5 668.3Q46.2 667.6 46.9 667.8Q47.9 667.6 48.6 667.8L50.9 668.6Z"/><path class="v" d="M50.9 668.6Q46 671.7 42 674.5"/><path class="p" d="M53.5 666.9Q55.4 667.7 55 668Q56.2 668.8 55.7 669.1Q56.4 669.9 56 670.2Q56.3 671 55.8 671.3Q55.9 672.1 55.4 672.4Q55.2 673.2 54.8 673.5Q54.5 674.3 54 674.6L53.2 675.7Q52 674.8 52.5 674.5Q51.3 673.7 51.8 673.4Q50.8 672.6 51.2 672.3Q50.4 671.5 50.8 671.2Q50.3 670.4 50.8 670.1Q50.6 669.3 51.1 669Q51.5 668.2 51.9 667.9L53.5 666.9Z"/><path class="v" d="M53.5 666.9Q53.5 671.3 53.2 675"/><path class="p" d="M53.5 666.9Q52 668.4 51.9 667.9Q50.7 668.8 50.6 668.2Q49.6 668.6 49.5 668.1Q48.6 668.2 48.5 667.6Q47.7 667.4 47.6 666.9Q46.9 666.4 46.8 665.9Q46.1 665.4 46 664.8L45.2 663.8Q46.4 662.9 46.5 663.4Q47.7 662.6 47.8 663.1Q48.9 662.4 49 663Q50.1 662.4 50.2 663Q51.2 662.7 51.3 663.3Q52.1 663.4 52.2 663.9Q52.8 664.5 53 665L53.5 666.9Z"/><path class="v" d="M53.5 666.9Q49.3 665.5 45.9 664"/><path class="s2" d="M58.7 750.8L67 755.5"/><path class="p" d="M67 755.5Q69.1 753.8 69.2 754.5Q70.8 753.7 70.9 754.4Q72.3 754 72.3 754.7Q73.5 754.9 73.5 755.6Q74.5 756 74.6 756.7Q75.4 757.4 75.4 758.1Q76.2 758.9 76.3 759.6L77.1 761.1Q75.4 761.9 75.3 761.2Q73.7 762 73.6 761.3Q72.1 762 72 761.3Q70.6 761.7 70.5 761Q69.3 761.1 69.2 760.4Q68.2 760.1 68.1 759.4Q67.4 758.5 67.3 757.8L67 755.5Z"/><path class="v" d="M67 755.5Q72.1 758.1 76.3 760.6"/><path class="p" d="M64.2 753.9Q64.1 751.8 64.6 752.1Q64.8 750.6 65.3 750.9Q65.7 749.9 66.1 750.2Q66.7 749.5 67.2 749.8Q67.9 749.4 68.3 749.7Q69.1 749.5 69.6 749.8Q70.4 749.7 70.9 749.9L72.2 750.2Q72 751.6 71.5 751.3Q71.3 752.7 70.8 752.4Q70.6 753.7 70.1 753.5Q69.8 754.6 69.3 754.3Q68.8 755.1 68.3 754.9Q67.7 755.3 67.2 755.1Q66.4 755.1 65.9 754.8L64.2 753.9Z"/><path class="v" d="M64.2 753.9Q68.3 752.3 71.6 750.5"/><path class="p" d="M64.2 753.9Q66.3 754.5 65.9 754.8Q67.2 755.5 66.8 755.9Q67.6 756.6 67.2 756.9Q67.6 757.7 67.2 758Q67.3 758.8 66.9 759.2Q66.9 760 66.4 760.3Q66.3 761.1 65.8 761.5L65.2 762.7Q63.9 762 64.3 761.7Q63.1 761 63.5 760.7Q62.3 760 62.8 759.6Q61.8 758.9 62.2 758.6Q61.6 757.8 62 757.5Q61.8 756.7 62.2 756.4Q62.4 755.5 62.8 755.2L64.2 753.9Z"/><path class="v" d="M64.2 753.9Q64.9 758.3 65.1 762"/><path class="s2" d="M60.2 845.8L52 850.6"/><path class="p" d="M52 850.6Q52.4 853.3 51.8 853Q51.6 854.8 51 854.5Q50.6 855.9 49.9 855.6Q49.3 856.5 48.6 856.2Q47.8 856.8 47.1 856.5Q46.1 856.9 45.5 856.6Q44.4 856.8 43.8 856.5L42.1 856.5Q42.2 854.6 42.8 854.9Q43 853.1 43.6 853.4Q43.8 851.7 44.5 852Q44.8 850.6 45.5 850.8Q46 849.7 46.6 850Q47.4 849.3 48.1 849.6Q49.2 849.4 49.8 849.7L52 850.6Z"/><path class="v" d="M52 850.6Q47 853.4 42.9 856"/><path class="p" d="M54.7 849Q56.6 850 56.2 850.2Q57.3 851.1 56.8 851.4Q57.5 852.2 57 852.5Q57.3 853.3 56.8 853.6Q56.8 854.4 56.3 854.7Q56.1 855.4 55.6 855.7Q55.3 856.5 54.8 856.7L54 857.8Q52.8 856.9 53.3 856.6Q52.2 855.7 52.7 855.5Q51.7 854.6 52.2 854.3Q51.4 853.4 51.9 853.2Q51.4 852.3 51.9 852.1Q51.8 851.3 52.3 851Q52.6 850.2 53.1 850L54.7 849Z"/><path class="v" d="M54.7 849Q54.4 853.4 54 857.1"/><path class="p" d="M54.7 849Q53.2 850.5 53.1 849.9Q51.9 850.7 51.8 850.2Q50.8 850.6 50.7 850Q49.8 850 49.7 849.5Q48.9 849.2 48.8 848.7Q48.2 848.2 48.1 847.7Q47.5 847.1 47.4 846.6L46.7 845.4Q47.9 844.6 48 845.2Q49.2 844.4 49.3 845Q50.4 844.3 50.5 844.8Q51.6 844.4 51.7 844.9Q52.7 844.7 52.8 845.3Q53.5 845.5 53.6 846Q54.2 846.6 54.3 847.1L54.7 849Z"/><path class="v" d="M54.7 849Q50.8 847 47.3 845.7"/><path class="s2" d="M62.6 944.9L70.9 949.3"/><path class="p" d="M70.9 949.3Q73 947.6 73.1 948.3Q74.7 947.4 74.8 948.1Q76.2 947.8 76.3 948.5Q77.4 948.5 77.5 949.2Q78.4 949.7 78.5 950.4Q79.3 951 79.4 951.7Q80.2 952.5 80.3 953.2L81.1 954.7Q79.5 955.5 79.4 954.9Q77.8 955.7 77.7 955Q76.2 955.7 76.1 955Q74.6 955.4 74.6 954.7Q73.3 954.9 73.2 954.2Q72.2 953.9 72.1 953.2Q71.4 952.3 71.3 951.6L70.9 949.3Z"/><path class="v" d="M70.9 949.3Q76.1 951.8 80.3 954.3"/><path class="p" d="M68.1 947.8Q68 945.7 68.4 946Q68.6 944.5 69.1 944.8Q69.5 943.7 69.9 944Q70.5 943.3 71 943.6Q71.7 943.2 72.1 943.5Q72.9 943.3 73.4 943.5Q74.2 943.4 74.7 943.7L76 943.9Q75.9 945.3 75.4 945Q75.2 946.5 74.7 946.2Q74.5 947.5 74 947.2Q73.7 948.3 73.2 948.1Q72.7 948.9 72.3 948.7Q71.6 949.2 71.1 948.9Q70.3 949 69.8 948.7L68.1 947.8Z"/><path class="v" d="M68.1 947.8Q72.1 945.8 75.4 944.2"/><path class="p" d="M68.1 947.8Q70.2 948.3 69.8 948.7Q71.1 949.3 70.7 949.7Q71.6 950.4 71.1 950.7Q71.6 951.5 71.2 951.9Q71.3 952.6 70.9 953Q70.9 953.8 70.5 954.2Q70.3 955 69.9 955.4L69.3 956.6Q68 955.9 68.4 955.6Q67.1 954.9 67.5 954.6Q66.4 953.9 66.8 953.6Q65.8 952.9 66.2 952.5Q65.6 951.8 66 951.4Q65.7 950.7 66.2 950.3Q66.4 949.5 66.8 949.1L68.1 947.8Z"/><path class="v" d="M68.1 947.8Q69 952.2 69.2 955.9"/><path class="s2" d="M65.6 1044.8L57.6 1049.9"/><path class="p" d="M57.6 1049.9Q58.1 1052.5 57.5 1052.3Q57.4 1054.1 56.8 1053.9Q56.4 1055.2 55.7 1055Q55.1 1055.9 54.5 1055.6Q53.6 1056.2 53 1056Q52 1056.4 51.4 1056.1Q50.3 1056.4 49.6 1056.1L47.9 1056.1Q48 1054.3 48.6 1054.6Q48.7 1052.8 49.3 1053Q49.5 1051.3 50.1 1051.6Q50.4 1050.1 51.1 1050.4Q51.6 1049.2 52.2 1049.5Q53 1048.8 53.7 1049Q54.7 1048.8 55.4 1049.1L57.6 1049.9Z"/><path class="v" d="M57.6 1049.9Q52.9 1053.1 48.7 1055.6"/><path class="p" d="M60.3 1048.2Q62.2 1049.1 61.8 1049.4Q62.9 1050.2 62.5 1050.5Q63.2 1051.3 62.7 1051.6Q63 1052.4 62.6 1052.7Q62.6 1053.5 62.1 1053.8Q61.9 1054.6 61.4 1054.9Q61.1 1055.6 60.7 1055.9L59.9 1057Q58.7 1056.1 59.2 1055.9Q58 1055 58.5 1054.7Q57.5 1053.9 57.9 1053.6Q57.1 1052.7 57.6 1052.5Q57.1 1051.6 57.5 1051.4Q57.4 1050.6 57.9 1050.3Q58.2 1049.5 58.7 1049.2L60.3 1048.2Z"/><path class="v" d="M60.3 1048.2Q59.9 1052.6 59.9 1056.3"/><path class="p" d="M60.3 1048.2Q58.8 1049.7 58.7 1049.2Q57.5 1050 57.4 1049.5Q56.4 1049.9 56.3 1049.4Q55.4 1049.4 55.3 1048.9Q54.5 1048.6 54.4 1048.1Q53.7 1047.6 53.6 1047.1Q53 1046.6 52.8 1046L52.1 1044.9Q53.3 1044.1 53.4 1044.6Q54.6 1043.8 54.7 1044.4Q55.8 1043.7 55.9 1044.2Q57 1043.7 57.1 1044.2Q58 1044 58.2 1044.5Q59 1044.7 59.1 1045.2Q59.7 1045.8 59.8 1046.4L60.3 1048.2Z"/><path class="v" d="M60.3 1048.2Q56.2 1046.4 52.7 1045.2"/><path class="s2" d="M68.8 1142.2L77.1 1146.6"/><path class="p" d="M77.1 1146.6Q79.2 1144.9 79.3 1145.6Q81 1144.8 81 1145.5Q82.4 1145.1 82.5 1145.8Q83.6 1145.9 83.7 1146.6Q84.7 1147 84.8 1147.7Q85.6 1148.4 85.7 1149.1Q86.4 1149.8 86.5 1150.5L87.4 1152Q85.7 1152.9 85.6 1152.2Q84 1153 83.9 1152.3Q82.4 1153 82.3 1152.3Q80.9 1152.8 80.8 1152.1Q79.6 1152.2 79.5 1151.5Q78.4 1151.2 78.4 1150.5Q77.6 1149.7 77.5 1149L77.1 1146.6Z"/><path class="v" d="M77.1 1146.6Q82.4 1149.1 86.5 1151.6"/><path class="p" d="M74.4 1145.2Q74.2 1143 74.7 1143.3Q74.8 1141.9 75.3 1142.1Q75.7 1141.1 76.2 1141.4Q76.7 1140.7 77.2 1141Q77.9 1140.6 78.4 1140.8Q79.1 1140.6 79.6 1140.9Q80.5 1140.8 80.9 1141L82.3 1141.2Q82.1 1142.7 81.6 1142.4Q81.4 1143.8 80.9 1143.5Q80.7 1144.8 80.2 1144.6Q79.9 1145.7 79.4 1145.4Q79 1146.3 78.5 1146Q77.8 1146.5 77.4 1146.2Q76.5 1146.3 76 1146L74.4 1145.2Z"/><path class="v" d="M74.4 1145.2Q78.3 1143.1 81.6 1141.5"/><path class="p" d="M74.4 1145.2Q76.4 1145.7 76 1146.1Q77.3 1146.7 76.9 1147Q77.8 1147.7 77.4 1148.1Q77.8 1148.8 77.4 1149.2Q77.6 1150 77.2 1150.3Q77.1 1151.2 76.7 1151.5Q76.5 1152.3 76.1 1152.7L75.5 1153.9Q74.2 1153.3 74.6 1152.9Q73.4 1152.3 73.8 1151.9Q72.6 1151.3 73 1150.9Q72.1 1150.2 72.5 1149.9Q71.8 1149.2 72.2 1148.8Q72 1148 72.4 1147.7Q72.6 1146.8 73 1146.5L74.4 1145.2Z"/><path class="v" d="M74.4 1145.2Q75.1 1149.5 75.4 1153.2"/><path class="s2" d="M72.4 1240.2L64.8 1245.8"/><path class="p" d="M64.8 1245.8Q65.4 1248.4 64.7 1248.2Q64.8 1250.1 64.1 1249.8Q63.9 1251.2 63.2 1251Q62.6 1252 62 1251.7Q61.2 1252.4 60.5 1252.2Q59.5 1252.6 58.9 1252.4Q57.8 1252.8 57.2 1252.5L55.5 1252.6Q55.4 1250.8 56.1 1251Q56 1249.2 56.7 1249.4Q56.7 1247.7 57.4 1248Q57.6 1246.5 58.3 1246.7Q58.7 1245.5 59.4 1245.8Q60.1 1245 60.7 1245.2Q61.8 1244.9 62.5 1245.1L64.8 1245.8Z"/><path class="v" d="M64.8 1245.8Q60.2 1249.4 56.2 1252.1"/><path class="p" d="M67.3 1244Q69.3 1244.7 68.9 1245Q70.1 1245.8 69.6 1246.1Q70.4 1246.9 69.9 1247.2Q70.3 1248 69.9 1248.3Q69.9 1249.1 69.5 1249.4Q69.3 1250.2 68.9 1250.6Q68.6 1251.3 68.2 1251.7L67.4 1252.8Q66.2 1252 66.6 1251.7Q65.5 1250.9 65.9 1250.6Q64.8 1249.8 65.3 1249.5Q64.4 1248.7 64.9 1248.4Q64.3 1247.6 64.8 1247.3Q64.6 1246.5 65 1246.2Q65.4 1245.4 65.8 1245.1L67.3 1244Z"/><path class="v" d="M67.3 1244Q67.2 1248.4 67.4 1252.1"/><path class="p" d="M67.3 1244Q65.9 1245.6 65.8 1245.1Q64.7 1246 64.5 1245.4Q63.5 1245.9 63.4 1245.4Q62.5 1245.5 62.3 1244.9Q61.6 1244.7 61.4 1244.2Q60.7 1243.8 60.6 1243.3Q59.9 1242.8 59.7 1242.3L58.9 1241.2Q60.1 1240.3 60.2 1240.8Q61.3 1240 61.5 1240.5Q62.6 1239.7 62.7 1240.2Q63.8 1239.7 63.9 1240.2Q64.8 1239.9 65 1240.5Q65.8 1240.6 65.9 1241.1Q66.6 1241.6 66.7 1242.2L67.3 1244Z"/><path class="v" d="M67.3 1244Q63.1 1242.7 59.6 1241.4"/><path class="s2" d="M77.1 1346.7L85.9 1350.1"/><path class="p" d="M85.9 1350.1Q87.8 1348.2 88 1348.9Q89.5 1347.8 89.7 1348.5Q91 1348 91.2 1348.7Q92.3 1348.6 92.5 1349.3Q93.5 1349.6 93.6 1350.3Q94.5 1350.8 94.7 1351.5Q95.5 1352.2 95.7 1352.9L96.7 1354.3Q95.2 1355.3 95 1354.6Q93.5 1355.6 93.4 1355Q91.9 1355.8 91.8 1355.2Q90.4 1355.8 90.2 1355.1Q89 1355.4 88.8 1354.7Q87.8 1354.5 87.6 1353.8Q86.8 1353.1 86.6 1352.4L85.9 1350.1Z"/><path class="v" d="M85.9 1350.1Q91.2 1352.4 95.9 1353.9"/><path class="p" d="M83 1349Q82.6 1346.9 83.1 1347.1Q83.1 1345.7 83.6 1345.9Q83.8 1344.8 84.3 1345Q84.8 1344.3 85.3 1344.5Q85.9 1344 86.5 1344.2Q87.2 1343.9 87.7 1344.1Q88.5 1343.9 89 1344.1L90.4 1344.1Q90.4 1345.6 89.9 1345.4Q89.8 1346.8 89.3 1346.6Q89.3 1347.9 88.8 1347.7Q88.6 1348.9 88.1 1348.7Q87.7 1349.5 87.2 1349.3Q86.6 1349.9 86.1 1349.7Q85.3 1349.9 84.8 1349.7L83 1349Z"/><path class="v" d="M83 1349Q86.7 1346.6 89.8 1344.5"/><path class="p" d="M83 1349Q85.1 1349.3 84.8 1349.7Q86.1 1350.1 85.8 1350.6Q86.7 1351.1 86.3 1351.5Q86.9 1352.2 86.5 1352.6Q86.8 1353.4 86.4 1353.8Q86.5 1354.6 86.1 1355Q86 1355.9 85.7 1356.3L85.2 1357.5Q83.9 1357.1 84.2 1356.7Q82.9 1356.2 83.2 1355.8Q82 1355.3 82.4 1354.9Q81.3 1354.3 81.7 1353.9Q81 1353.3 81.3 1352.9Q81 1352.1 81.3 1351.7Q81.4 1350.9 81.8 1350.5L83 1349Z"/><path class="v" d="M83 1349Q83.9 1353.3 85.1 1356.9"/><path class="s2" d="M82.4 1453.5L74.5 1458.8"/><path class="p" d="M74.5 1458.8Q75 1461.4 74.4 1461.2Q74.4 1463.1 73.7 1462.8Q73.4 1464.2 72.8 1463.9Q72.1 1464.9 71.5 1464.6Q70.7 1465.3 70 1465Q69 1465.4 68.4 1465.2Q67.3 1465.5 66.7 1465.3L65 1465.3Q65 1463.5 65.6 1463.7Q65.7 1461.9 66.3 1462.1Q66.4 1460.5 67.1 1460.7Q67.3 1459.2 68 1459.5Q68.5 1458.3 69.1 1458.6Q69.9 1457.8 70.5 1458.1Q71.6 1457.8 72.3 1458L74.5 1458.8Z"/><path class="v" d="M74.5 1458.8Q69.6 1461.8 65.7 1464.8"/><path class="p" d="M77.1 1457.1Q79.1 1457.9 78.6 1458.2Q79.8 1459 79.4 1459.3Q80.1 1460.1 79.6 1460.4Q80 1461.2 79.5 1461.5Q79.5 1462.3 79.1 1462.6Q78.9 1463.4 78.4 1463.7Q78.1 1464.5 77.7 1464.8L76.9 1465.9Q75.7 1465 76.2 1464.7Q75 1463.9 75.5 1463.6Q74.4 1462.8 74.9 1462.5Q74.1 1461.7 74.5 1461.4Q74 1460.6 74.5 1460.3Q74.3 1459.5 74.8 1459.2Q75.1 1458.4 75.6 1458.1L77.1 1457.1Z"/><path class="v" d="M77.1 1457.1Q76.9 1461.5 76.9 1465.2"/><path class="p" d="M77.1 1457.1Q75.7 1458.6 75.6 1458.1Q74.4 1459 74.3 1458.4Q73.3 1458.9 73.1 1458.3Q72.3 1458.4 72.1 1457.9Q71.4 1457.6 71.2 1457.1Q70.5 1456.7 70.4 1456.1Q69.8 1455.6 69.6 1455.1L68.9 1454Q70 1453.1 70.2 1453.7Q71.3 1452.8 71.4 1453.4Q72.6 1452.6 72.7 1453.2Q73.7 1452.6 73.9 1453.2Q74.8 1452.9 74.9 1453.5Q75.7 1453.6 75.9 1454.1Q76.5 1454.7 76.6 1455.2L77.1 1457.1Z"/><path class="v" d="M77.1 1457.1Q73 1455.4 69.5 1454.2"/><path class="s2" d="M87.4 1551.8L95.6 1556.5"/><path class="p" d="M95.6 1556.5Q97.7 1554.9 97.8 1555.6Q99.5 1554.8 99.5 1555.5Q100.9 1555.2 100.9 1555.9Q102.1 1556 102.1 1556.7Q103.1 1557.2 103.1 1557.9Q103.9 1558.6 104 1559.3Q104.7 1560.1 104.8 1560.8L105.6 1562.3Q103.9 1563.1 103.8 1562.4Q102.2 1563.2 102.1 1562.5Q100.6 1563.1 100.5 1562.4Q99.1 1562.8 99 1562.1Q97.8 1562.2 97.7 1561.5Q96.7 1561.2 96.6 1560.5Q95.9 1559.6 95.9 1558.9L95.6 1556.5Z"/><path class="v" d="M95.6 1556.5Q100.6 1559.4 104.8 1561.9"/><path class="p" d="M92.9 1554.9Q92.8 1552.8 93.2 1553.1Q93.5 1551.7 93.9 1551.9Q94.3 1550.9 94.8 1551.2Q95.4 1550.6 95.9 1550.9Q96.6 1550.5 97 1550.8Q97.8 1550.6 98.3 1550.9Q99.1 1550.8 99.6 1551.1L100.9 1551.3Q100.7 1552.7 100.2 1552.5Q100 1553.9 99.5 1553.6Q99.2 1554.9 98.7 1554.6Q98.4 1555.7 97.9 1555.4Q97.4 1556.2 96.9 1555.9Q96.3 1556.4 95.8 1556.1Q95 1556.2 94.5 1555.9L92.9 1554.9Z"/><path class="v" d="M92.9 1554.9Q96.8 1552.9 100.3 1551.6"/><path class="p" d="M92.9 1554.9Q94.9 1555.5 94.5 1555.9Q95.8 1556.6 95.3 1556.9Q96.2 1557.6 95.7 1558Q96.2 1558.7 95.7 1559.1Q95.9 1559.9 95.5 1560.2Q95.4 1561 94.9 1561.4Q94.7 1562.2 94.3 1562.6L93.7 1563.7Q92.4 1563 92.8 1562.7Q91.6 1562 92 1561.7Q90.9 1561 91.3 1560.6Q90.4 1559.9 90.8 1559.6Q90.2 1558.8 90.6 1558.5Q90.4 1557.7 90.8 1557.3Q91 1556.5 91.4 1556.2L92.9 1554.9Z"/><path class="v" d="M92.9 1554.9Q93.4 1559.3 93.6 1563"/><path class="s2" d="M91.6 1632.7L83.3 1637.1"/><path class="p" d="M83.3 1637.1Q83.5 1639.7 82.9 1639.4Q82.7 1641.3 82 1640.9Q81.5 1642.3 80.9 1641.9Q80.2 1642.8 79.6 1642.5Q78.7 1643 78.1 1642.7Q77.1 1643 76.4 1642.7Q75.4 1642.9 74.7 1642.6L73 1642.4Q73.2 1640.6 73.9 1640.9Q74.1 1639.1 74.7 1639.4Q75 1637.8 75.7 1638.1Q76.1 1636.7 76.7 1637Q77.3 1635.9 77.9 1636.2Q78.7 1635.6 79.4 1635.9Q80.5 1635.7 81.1 1636L83.3 1637.1Z"/><path class="v" d="M83.3 1637.1Q78 1639.5 73.8 1642"/><path class="p" d="M86 1635.6Q87.9 1636.7 87.4 1636.9Q88.5 1637.9 88 1638.1Q88.7 1639 88.2 1639.2Q88.4 1640.1 87.9 1640.3Q87.9 1641.1 87.4 1641.4Q87.1 1642.1 86.6 1642.4Q86.2 1643.1 85.7 1643.4L84.8 1644.3Q83.7 1643.4 84.2 1643.1Q83.2 1642.2 83.7 1642Q82.7 1641 83.2 1640.8Q82.5 1639.9 83 1639.6Q82.5 1638.8 83 1638.5Q83 1637.7 83.5 1637.5Q83.9 1636.7 84.4 1636.5L86 1635.6Z"/><path class="v" d="M86 1635.6Q85.2 1639.9 84.9 1643.6"/><path class="p" d="M86 1635.6Q84.4 1637 84.4 1636.5Q83.1 1637.2 83 1636.7Q82 1637 81.9 1636.4Q81.1 1636.4 81 1635.8Q80.3 1635.5 80.2 1635Q79.5 1634.5 79.5 1633.9Q78.9 1633.3 78.8 1632.8L78.2 1631.6Q79.4 1630.9 79.5 1631.5Q80.7 1630.8 80.8 1631.3Q82 1630.7 82.1 1631.3Q83.2 1630.8 83.2 1631.4Q84.2 1631.3 84.3 1631.8Q85 1632 85.1 1632.6Q85.7 1633.2 85.8 1633.7L86 1635.6Z"/><path class="v" d="M86 1635.6Q82.1 1633.7 78.8 1631.9"/><path class="p" d="M75.3 -2.5C58.7 -13 62.5 -26.3 73.6 -26.7Q77.9 -27.7 82.6 -24.4Q88.3 -24.3 91.2 -20.9C99.8 -14 95 -1 75.3 -2.5Z"/><path class="v" d="M76.1 -4.8Q77.9 -14.2 83.2 -20.5"/><path class="p" d="M83.2 7.5C86 -12.8 98.8 -14.4 103.2 -3.9Q105.8 -0.1 104.7 5.7Q106.7 11.2 104.9 15.4C102.2 26.5 89.4 27 83.2 7.5Z"/><path class="v" d="M85.5 7.3Q94.5 9.2 101.4 6.7"/><path class="p" d="M80.5 16C95.6 5.9 106.7 14.8 103.5 24.5Q103.1 28.8 98.6 31.4Q96.7 36.4 92.5 37.4C83.4 42.1 72.9 32.5 80.5 16Z"/><path class="v" d="M82.4 17.6Q88.3 25.7 95.4 29.6"/><path class="p" d="M69.6 19.8C87.4 27.8 85.5 40.7 74.7 42.3Q70.5 43.8 65.5 41.2Q59.9 41.8 56.6 38.9C47.1 33.4 50.1 20.7 69.6 19.8Z"/><path class="v" d="M69.1 22Q67.1 30.8 65.1 37.7"/><path class="p" d="M60.2 9.6C57.3 27 44.3 28.7 39.8 19.8Q37.3 16.6 38.4 11.6Q36.3 6.9 38.3 3.3C41 -6.3 54.1 -7 60.2 9.6Z"/><path class="v" d="M58 9.8Q48.8 8.6 41.9 13.2"/><path class="p" d="M64.9 -0.9C46.5 7 38.5 -3.1 44.9 -12.2Q46.7 -16.3 52.1 -18.3Q55.7 -22.9 60.2 -23.4C70.8 -26.7 78 -15.9 64.9 -0.9Z"/><path class="v" d="M63.6 -2.7Q59.6 -10.8 55.5 -16.6"/><path class="p" d="M77.2 5.8C73.4 -9.9 82.4 -14.9 88.7 -8.5Q91.7 -6.5 92.6 -1.9Q95.7 1.5 95.6 5.1C96.8 14 87.4 18.2 77.2 5.8Z"/><path class="v" d="M78.8 5Q85.5 2.5 90 -1.3"/><path class="p" d="M74 14.2C90.5 11.3 94.8 20.6 87.5 26.5Q85.1 29.4 80.3 30Q76.4 32.9 72.7 32.5C63.4 33.2 60 23.5 74 14.2Z"/><path class="v" d="M74.6 15.8Q77.1 22.4 81 26.9"/><path class="p" d="M66.6 11.9C72.9 27.5 64.8 33.4 57.6 27.5Q54.3 25.7 52.7 21.1Q49.1 17.8 48.7 14.1C46.1 5.2 54.6 0.1 66.6 11.9Z"/><path class="v" d="M65.2 12.8Q58.5 15.2 54.7 19.3"/><path class="p" d="M68.5 3.3C52.1 9.6 46.5 1.7 53 -5.6Q55.1 -8.8 59.8 -10.4Q63.4 -14 67.2 -14.5C76.5 -17.2 81.3 -8.7 68.5 3.3Z"/><path class="v" d="M67.6 1.9Q64.1 -3.8 59.5 -7.3"/><path class="l" d="M77.8 -1.4C86.1 9.5 77.5 21.7 65.3 15.9"/><path class="l" d="M77.8 15.9C68 19.9 60.1 11.4 66 2.7"/><path class="l" d="M64.6 11.2C63.7 3.4 70.9 -1 76.7 4.3"/><path class="l" d="M72.1 7.9L72.5 8.2L72.7 8.7L72.5 9.4L71.8 9.8L71 9.7L70.2 9.1L70 8.1L70.5 7L71.6 6.4L72.9 6.6L73.9 7.6L74.2 9.1L73.5 10.5L71.9 11.3L70.2 11L68.8 9.7L68.5 7.7L69.5 5.8L71.4 4.9L73.7 5.3L75.3 7L75.7 9.4"/><path class="p" d="M68.2 22.4C61.5 34.6 51.6 32.6 50.6 24.8Q49.5 22.3 52.4 20.7Q50.3 17.9 53.4 16.5Q50.8 13.6 53.8 12.1C58.3 5.6 68 8.5 68.2 22.4Z"/><path class="v" d="M66.5 22Q59.3 21.8 54 20.1"/><path class="p" d="M71.9 17.6C57.9 21 52.8 12.1 58.2 6Q59.3 3.3 62.5 4.6Q63 0.7 66.5 2.5Q67.1 -1.3 70.2 -0.3C78.2 -1.3 82.6 8 71.9 17.6Z"/><path class="v" d="M71.1 16Q66.3 10.6 66.3 4.2"/><path class="p" d="M76.9 16.9C63.2 10.8 64.6 1.3 73 0.3Q75.6 -1 77.5 1.9Q80.4 -0.5 82.1 2.8Q84.9 1.2 86.9 3.1C94.2 7.3 91.9 16.6 76.9 16.9Z"/><path class="v" d="M77.2 15.3Q80 9.1 78.5 3.4"/><path class="p" d="M81.6 20C76.7 6.9 84.6 1.1 91 5.6Q93.9 6.3 92.9 9.7Q96.7 9.7 95.3 13.3Q99 13.5 98.4 16.5C100.3 24.1 92 29.3 81.6 20Z"/><path class="v" d="M82.9 19.1Q87.5 13.7 92.7 11.7"/><path class="p" d="M82.5 26.3C89.8 13.4 99.3 15.7 99.7 24Q100.9 26.8 97.8 28.3Q99.1 31.1 96.5 32.8Q98 35.6 95.8 37.4C91 44.2 81.8 41 82.5 26.3Z"/><path class="v" d="M84.2 26.8Q90.2 30 96 29.7"/><path class="p" d="M78.6 30.9C93 28 97.8 37.1 92.1 43.1Q91 46.1 87.7 44.4Q86.9 48 83.5 46.4Q82.6 49.7 79.7 49C71.5 49.8 67.4 40.3 78.6 30.9Z"/><path class="v" d="M79.4 32.5Q81 39.7 85.1 44.1"/><path class="p" d="M72.7 31.1C85.2 39.6 82.1 48.6 73.7 48.2Q70.7 49.4 69.5 45.8Q66.3 47.5 65.1 44.1Q61.9 45.6 60.4 43C53.9 37.6 57.8 28.9 72.7 31.1Z"/><path class="v" d="M72.1 32.7Q71.1 39.4 66.9 43.4"/><path class="p" d="M69 28.1C72.9 41 64.5 46.6 58.5 41.9Q56.1 40.9 56.9 37.9Q53.9 37.3 54.7 34.3Q51 34.1 51.9 31C50.5 23.5 59.3 18.7 69 28.1Z"/><path class="v" d="M67.5 29Q62.3 33.6 56.3 34.4"/><path class="p" d="M72.9 21.8C63.9 27.7 58.6 23.1 61.2 17.6Q61.3 15.4 63.9 15.5Q64 13.2 66.3 13.1Q66.1 10.6 68.3 10.3C73.6 7.5 78.4 12.5 72.9 21.8Z"/><path class="p" d="M76.7 21C67.2 14.8 69.4 8.5 75.7 9Q77.7 8.5 78.8 10.7Q81.1 9.9 82.1 12Q84.3 11.4 85.6 12.9C90.5 16.8 87.8 22.9 76.7 21Z"/><path class="p" d="M78.6 23C76.9 11.5 83.6 8.5 87.7 13.6Q89.9 14.7 88.5 17.2Q91.3 18.1 89.9 20.6Q92.7 21.5 91.6 23.9C92 30.3 85 32.7 78.6 23Z"/><path class="p" d="M78 26.5C86.9 19.9 92.4 24.3 90 29.9Q89.9 32.2 87.3 32.3Q87.9 35 85.1 34.9Q85.5 37.6 83.1 37.8C77.9 41 72.8 36.2 78 26.5Z"/><path class="p" d="M74.1 27.4C83.5 33.7 81.3 39.9 75 39.3Q72.8 40 71.9 37.6Q69.5 38.7 68.6 36.2Q66.2 37.3 65.1 35.3C60.2 31.4 63 25.4 74.1 27.4Z"/><path class="p" d="M72 24.8C71.6 36.5 65 38 62.1 32.2Q60.6 30.6 62 28.4Q59.8 26.9 61.3 24.7Q58.9 23.3 60.2 21.1C61 14.7 67.7 13.8 72 24.8Z"/><path class="g" d="M75.2 23.5L74.4 20.9"/><circle class="gd" cx="74.4" cy="20.9" r="1.1"/><path class="g" d="M75.5 24.9L75.8 27.6"/><circle class="gd" cx="75.8" cy="27.6" r="1.1"/><path class="g" d="M74.9 23.7L71.6 20.3"/><circle class="gd" cx="71.6" cy="20.3" r="1.1"/><path class="g" d="M76 23.8L78.3 22"/><circle class="gd" cx="78.3" cy="22" r="1.1"/><path class="g" d="M74.8 24.6L71.4 27.1"/><circle class="gd" cx="71.4" cy="27.1" r="1.1"/><path class="g" d="M75.2 24.9L74.6 27.8"/><circle class="gd" cx="74.6" cy="27.8" r="1.1"/><path class="g" d="M76.1 24.3L78.4 24.5"/><circle class="gd" cx="78.4" cy="24.5" r="1.1"/><path class="g" d="M74.7 24L71 23.1"/><circle class="gd" cx="71" cy="23.1" r="1.1"/><path class="g" d="M74.8 23.7L72.7 21.8"/><circle class="gd" cx="72.7" cy="21.8" r="1.1"/><path class="g" d="M76.1 24L79.5 22.9"/><circle class="gd" cx="79.5" cy="22.9" r="1.1"/><path class="g" d="M75.8 24.8L76.9 26.4"/><circle class="gd" cx="76.9" cy="26.4" r="1.1"/><path class="g" d="M76.1 24.1L80.7 23.3"/><circle class="gd" cx="80.7" cy="23.3" r="1.1"/><path class="g" d="M76 23.8L79.1 22.1"/><circle class="gd" cx="79.1" cy="22.1" r="1.1"/><path class="g" d="M75.1 24.9L74.3 26.7"/><circle class="gd" cx="74.3" cy="26.7" r="1.1"/><path class="g" d="M75.4 24.9L75.2 27.3"/><circle class="gd" cx="75.2" cy="27.3" r="1.1"/><path class="g" d="M76.1 23.9L80 22"/><circle class="gd" cx="80" cy="22" r="1.1"/><path class="p" d="M83 48.6C92.8 43.1 98 48.3 95 53.8Q94.2 56.2 91.3 57.7Q89.6 60.4 87.1 61C81.4 63.5 76.6 57.8 83 48.6Z"/><path class="p" d="M75.9 50.3C86.2 56.1 84.3 63.7 77.7 64.1Q75.1 64.7 72.2 62.9Q68.8 62.9 67 60.9C61.6 57.1 64.1 49.6 75.9 50.3Z"/><path class="p" d="M71.1 46C72.9 56.8 66.3 59.9 62.2 55.4Q60.2 53.9 59.8 50.8Q57.8 48.3 58.2 45.8C57.8 39.7 64.6 37.2 71.1 46Z"/><path class="p" d="M71.6 39.1C63.2 47.9 56.6 44.2 58.3 37.6Q58.4 34.9 61 32.5Q62 29.1 64.4 27.8C69.6 23.4 75.7 27.6 71.6 39.1Z"/><path class="p" d="M75.7 35.9C63.7 37 61.1 29.9 66.6 26Q68.5 24 72 23.9Q74.9 22 77.5 22.5C84.3 22.6 86.2 29.9 75.7 35.9Z"/><path class="p" d="M83.1 37.6C76.6 27.9 81.8 21.9 87.7 24.5Q90.3 25.1 92.1 28Q95.1 29.5 95.8 32C98.8 37.8 93.2 43.4 83.1 37.6Z"/><path class="p" d="M85.5 42.7C87.4 31.6 94.8 30.8 97.2 36.7Q98.6 38.8 97.9 42Q98.9 45.1 97.8 47.3C96.1 53.4 88.6 53.5 85.5 42.7Z"/><path class="p" d="M78.4 47C87.5 48.4 88.3 54.9 83.7 57.1Q82 58.4 79.4 57.9Q77 58.9 75.1 58C70.1 56.7 69.7 50.1 78.4 47Z"/><path class="p" d="M74.3 44.4C75.9 54.7 70.3 57 66.9 52.4Q65.2 50.9 64.9 47.9Q63.2 45.5 63.5 43.2C63.1 37.5 68.8 35.7 74.3 44.4Z"/><path class="p" d="M75.4 40.1C67.1 44.5 62.7 39.9 65.3 35.3Q66 33.3 68.4 32.1Q69.9 29.9 72 29.5C76.8 27.5 80.8 32.5 75.4 40.1Z"/><path class="p" d="M80.1 39.7C73.5 32.8 76.7 27.3 81.9 28.6Q84.1 28.7 85.9 30.8Q88.6 31.6 89.6 33.5C92.9 37.7 89.2 43 80.1 39.7Z"/><path class="p" d="M81.8 44C86.2 35.1 92.8 36.4 93.4 41.8Q94.1 44 92.7 46.5Q92.9 49.3 91.4 50.9C88.4 55.6 82 53.8 81.8 44Z"/><path class="l" d="M70.7 41.3C75.7 34 85 36.8 83.9 45.5"/><path class="l" d="M81.3 37.8C85.8 43.1 82.1 49.6 75.6 47.8"/><path class="l" d="M81.1 46.9C76.5 49.1 72.3 45.5 74.4 40.9"/><path class="l" d="M74.5 44.3C74 40.9 76.9 38.6 79.8 40.6"/><path class="l" d="M77.6 43L77.6 42.7L77.9 42.4L78.4 42.4L78.8 42.7L78.9 43.3L78.7 43.9L78.1 44.2L77.3 44.1L76.8 43.6L76.6 42.7L77 41.9L77.9 41.4L78.9 41.6L79.7 42.4L79.9 43.5L79.3 44.6L78.2 45.2L76.8 45L75.8 44L75.6 42.5L76.3 41.1L77.8 40.4"/><path class="l" d="M80 64.7Q74.3 62.4 69.3 65.5"/><path class="l" d="M80 64.7Q86.1 66 88.5 71.4"/><path class="l" d="M80.3 63.9Q73.5 51.6 73.2 58.5"/><path class="p" d="M70.4 56.5C67.9 63.7 81.8 67.9 83.7 60.5Q78.3 54.4 70.4 56.5Z"/><path class="p" d="M79.4 59.2C76.8 66.4 90.7 70.6 92.6 63.2Q87.3 57.2 79.4 59.2Z"/><path class="p" d="M74 57.7C71.7 63.9 87.4 68.7 89 62.3Q82.5 56.6 74 57.7Z"/><path class="l" d="M76.4 50.6Q78.9 49.4 80.4 52"/><path class="l" d="M82.3 52.3Q84.7 51.2 86.3 53.8"/><path class="l" d="M87.6 54Q90.1 52.8 91.6 55.4"/><path class="p" d="M82.2 176C75.3 167.7 78.8 162.9 84.2 165.2Q86.5 165.8 88.4 168.2Q91.2 169.6 92.2 171.7C95.6 176.6 91.7 181 82.2 176Z"/><path class="p" d="M84.5 181.9C87.9 172.7 93.9 173.2 94.8 178.6Q95.6 180.6 94.5 183.2Q94.9 186 93.6 187.8C91.2 192.7 85.3 191.6 84.5 181.9Z"/><path class="p" d="M79 187.4C90.2 188 91.4 194.2 85.7 196.7Q83.6 198 80.4 197.7Q77.4 198.9 75.1 198.1C68.9 197.2 68.4 191 79 187.4Z"/><path class="p" d="M73.6 185.6C79.8 194.9 75.5 199.6 70 196.7Q67.7 195.9 66 193.1Q63.3 191.5 62.5 189.1C59.5 183.7 64.2 179.4 73.6 185.6Z"/><path class="p" d="M72 178.9C66.7 187.8 60.6 186 60.7 180.3Q60.3 178 61.9 175.5Q62.1 172.6 63.8 171C67.2 166.3 73.1 168.6 72 178.9Z"/><path class="p" d="M76 174.9C65.9 176.2 63.6 170.4 68 167Q69.5 165.3 72.4 165.1Q74.8 163.4 77.1 163.7C82.7 163.6 84.5 169.5 76 174.9Z"/><path class="p" d="M81.5 180.5C82.2 172.2 87.9 171.1 90.2 175.2Q91.4 176.6 91.1 179Q92.1 181.2 91.4 182.9C90.4 187.5 84.7 188.1 81.5 180.5Z"/><path class="p" d="M79.3 184.2C87.6 183.2 89.9 188.5 86.3 191.5Q85.1 193 82.7 193.2Q80.7 194.6 78.9 194.3C74.2 194.3 72.4 188.9 79.3 184.2Z"/><path class="p" d="M75.6 183.2C79.2 190.4 75.1 194.4 71.1 192.2Q69.3 191.7 68.3 189.5Q66.3 188.3 66.1 186.4C64.4 182.2 68.9 178.6 75.6 183.2Z"/><path class="p" d="M75.1 179.3C69.4 185.7 64.3 183.2 65.1 178.5Q65 176.5 66.7 174.8Q67.3 172.3 69 171.3C72.5 168.1 77.4 171.1 75.1 179.3Z"/><path class="p" d="M78.9 177.7C70.9 173.8 72 168.4 76.9 168Q78.8 167.5 81.1 168.7Q83.6 168.6 85.1 170C89.3 172.6 87.8 177.8 78.9 177.7Z"/><path class="l" d="M80.4 174.9C86.1 180 82.7 187.6 75.4 185.7"/><path class="l" d="M82.3 184.4C77.3 187.6 72.1 183.8 74.4 178.4"/><path class="l" d="M74.5 183.2C73.2 179 76.7 175.8 80.4 178.2"/><path class="l" d="M78.3 180.6L78.5 180.7L78.7 181L78.6 181.4L78.3 181.7L77.8 181.7L77.4 181.5L77.1 180.9L77.3 180.3L77.8 179.9L78.6 179.8L79.2 180.2L79.5 181L79.3 181.9L78.5 182.5L77.5 182.5L76.7 181.9L76.3 180.9L76.6 179.8L77.6 179L78.9 179L80 179.8L80.4 181.1"/><path class="l" d="M76.2 298.5Q71.6 296.2 67.2 298.5"/><path class="l" d="M76.2 298.5Q81.1 299.9 82.8 304.6"/><path class="l" d="M76.5 297.8Q71.6 287.2 70.9 292.9"/><path class="p" d="M68.7 291C66.2 296.9 77.4 301.3 79.5 295.2Q75.2 290.4 68.7 291Z"/><path class="p" d="M76 293.9C73.4 299.7 84.7 304.1 86.8 298.1Q82.5 293.2 76 293.9Z"/><path class="p" d="M71.6 292.3C69.4 297.3 82.1 302.3 83.8 297.1Q78.7 292.1 71.6 292.3Z"/><path class="l" d="M74.1 286.5Q76.2 285.7 77.3 288"/><path class="l" d="M78.9 288.4Q81 287.6 82.1 289.8"/><path class="l" d="M83.2 290.1Q85.3 289.3 86.4 291.5"/><path class="p" d="M57.5 416.9C48.8 423.5 42.3 418.8 44.1 412.9Q44.2 410.8 46.6 410.5Q45.8 407.7 48.7 407.8Q48.1 405.1 50.4 404.8C55.7 401.6 61.8 406.9 57.5 416.9Z"/><path class="p" d="M61.4 414.7C50.8 413.3 49.6 405.6 54.9 402.9Q56.5 401.4 58.3 403Q59.8 401.2 61.7 402.6Q63.1 400.1 65 401.7C70.8 403.2 71.4 410.9 61.4 414.7Z"/><path class="p" d="M66.1 416.2C60.5 407.3 65.7 401.4 71.1 403.7Q73.7 403.3 73.2 406.3Q76 405.7 75.6 408.6Q78.2 408.2 78.3 410.4C80.9 415.8 75.3 421.2 66.1 416.2Z"/><path class="p" d="M67.7 419C67.7 407.7 75.3 405.4 78.9 410.7Q80.9 412 79.2 414.3Q81.3 415.6 80.1 417.8Q82.8 418.9 81.5 421.1C80.8 427.4 73.1 429.1 67.7 419Z"/><path class="p" d="M67 423.5C74.6 416.1 81.2 419.8 80.1 425.6Q80.5 427.8 78 428.2Q79.2 430.8 76.3 431Q77.3 433.6 75 434.1C70.3 437.7 64 433.5 67 423.5Z"/><path class="p" d="M62.4 426.2C73.1 428.3 73.8 435.7 68.2 438Q66.5 439.7 64.7 437.7Q63.1 439.3 61.3 437.9Q59.6 439.9 57.9 438.5C52 436.8 51.9 429.4 62.4 426.2Z"/><path class="p" d="M58 424.6C64.4 434.5 59.1 440.4 53.2 437.6Q50.9 437.3 50.9 434.6Q48 435 48.2 432.1Q45.2 432.5 45.2 429.9C42.2 424 48 418.6 58 424.6Z"/><path class="p" d="M56.3 420.9C54.5 431.3 47 432.2 44.5 426.8Q43.3 425.3 44.7 423.5Q42.2 422 44.5 420.2Q41.9 418.7 43.7 416.9C45.3 411.2 52.9 410.9 56.3 420.9Z"/><path class="p" d="M60.9 418C52.6 419.8 50.1 414.9 53.4 411.6Q54.1 410 56 410.8Q56.5 408.7 58.4 409.7Q59.1 407.9 60.7 408.2C65.4 407.6 67.6 412.7 60.9 418Z"/><path class="p" d="M63.8 418.4C58.4 411.6 61.6 407.5 66 409.2Q67.5 409.5 67.9 411.2Q69.7 411.1 70 413Q71.8 412.8 72.3 414.4C74.9 418.4 71.4 422.3 63.8 418.4Z"/><path class="p" d="M64.7 421.1C68.5 413 73.5 413.9 73.8 418.9Q74.2 420.4 72.8 421.6Q74.1 423.3 72.2 424.3Q73 426 71.8 427.1C69.4 431.4 64.4 430 64.7 421.1Z"/><path class="p" d="M63.4 422.8C72.1 420.2 74.8 424.7 71.1 428.2Q70.4 429.9 68.4 429.3Q67.9 431.4 65.8 430.6Q65.2 432.6 63.4 432.3C58.5 433.3 56.3 428.6 63.4 422.8Z"/><path class="p" d="M60.6 422.7C66.7 428.7 64.1 433.3 59.5 432.1Q57.6 432.6 57.4 430.4Q55.6 430.7 55.1 428.9Q53.3 429.3 52.6 427.8C49.6 424.1 52.6 419.8 60.6 422.7Z"/><path class="p" d="M59.4 419.9C55.8 428.3 50.7 427.5 50.4 422.4Q49.8 420.7 51.4 419.6Q50.3 417.9 52 416.7Q50.9 415 52.3 413.8C54.7 409.3 59.7 410.7 59.4 419.9Z"/><path class="g" d="M62.6 420.1L63.8 419.3"/><circle class="gd" cx="63.8" cy="419.3" r="1.1"/><path class="g" d="M62.4 420L63.4 418.5"/><circle class="gd" cx="63.4" cy="418.5" r="1.1"/><path class="g" d="M62 419.9L61.7 418.5"/><circle class="gd" cx="61.7" cy="418.5" r="1.1"/><path class="g" d="M62.1 419.9L62.3 418.1"/><circle class="gd" cx="62.3" cy="418.1" r="1.1"/><path class="g" d="M62.2 421L62.6 422.4"/><circle class="gd" cx="62.6" cy="422.4" r="1.1"/><path class="g" d="M61.8 421L60.9 422.9"/><circle class="gd" cx="60.9" cy="422.9" r="1.1"/><path class="g" d="M62.7 420.4L65.4 420.1"/><circle class="gd" cx="65.4" cy="420.1" r="1.1"/><path class="g" d="M61.7 420.9L59.3 423.6"/><circle class="gd" cx="59.3" cy="423.6" r="1.1"/><path class="g" d="M62.4 421L63.2 422.6"/><circle class="gd" cx="63.2" cy="422.6" r="1.1"/><path class="g" d="M62.6 420.3L66.1 419.3"/><circle class="gd" cx="66.1" cy="419.3" r="1.1"/><path class="g" d="M61.9 419.9L60.4 416.6"/><circle class="gd" cx="60.4" cy="416.6" r="1.1"/><path class="g" d="M62.6 420.7L65.9 421.9"/><circle class="gd" cx="65.9" cy="421.9" r="1.1"/><path class="g" d="M61.9 419.9L61.1 417.1"/><circle class="gd" cx="61.1" cy="417.1" r="1.1"/><path class="g" d="M62.4 420L63.3 418.6"/><circle class="gd" cx="63.3" cy="418.6" r="1.1"/><path class="g" d="M62.3 421L62.8 422.6"/><circle class="gd" cx="62.8" cy="422.6" r="1.1"/><path class="g" d="M61.5 420.5L58.9 420.9"/><circle class="gd" cx="58.9" cy="420.9" r="1.1"/><path class="p" d="M52.3 466C59.1 476.8 53.4 483.1 46.9 480.1Q44.1 479.4 42.3 476.2Q39 474.4 38.3 471.6C35.1 465.2 41.4 459.4 52.3 466Z"/><path class="p" d="M50.4 458.4C43.5 470.1 35 467.8 34.9 460.2Q34.3 457.2 36.5 453.9Q36.7 449.9 38.9 447.9C43.4 441.7 51.6 444.8 50.4 458.4Z"/><path class="p" d="M57.5 453.2C44.6 450.1 44.2 441 51.1 438.4Q53.7 436.8 57.3 437.8Q61 436.7 63.6 438.3C70.6 440.7 70.3 449.9 57.5 453.2Z"/><path class="p" d="M64.7 458.6C64 444.2 72.8 441.3 77.3 448Q79.6 450.2 79.6 454.4Q81.8 458 81.1 461.1C80.7 469.2 71.7 471.3 64.7 458.6Z"/><path class="p" d="M62 466.7C75.2 460.7 80.8 467.6 76.1 474.1Q74.7 477 70.8 478.6Q68.2 481.9 65 482.3C57.4 484.9 52.4 477.6 62 466.7Z"/><path class="p" d="M53.6 461.3C53.1 471.6 47.2 472.8 44.7 467.6Q43.4 465.7 43.7 462.8Q42.5 460 43.3 457.8C44.1 452.1 50.1 451.5 53.6 461.3Z"/><path class="p" d="M57.5 456.7C46.1 454.5 45.8 447.9 52 446.1Q54.2 445 57.5 445.7Q60.8 444.9 63.1 446.1C69.3 447.9 69 454.4 57.5 456.7Z"/><path class="p" d="M61.5 460.3C62.7 449.9 68.7 449.1 70.8 454.5Q72 456.5 71.5 459.5Q72.5 462.4 71.6 464.6C70.4 470.3 64.4 470.5 61.5 460.3Z"/><path class="p" d="M57.7 464.6C67.8 466.5 68.2 472.8 62.8 474.7Q60.8 475.8 57.9 475.2Q55.1 476 53.1 475C47.5 473.4 47.7 467.1 57.7 464.6Z"/><path class="l" d="M52.2 465.9C48.6 457.8 55.9 451.5 62.7 457"/><path class="l" d="M54.8 455.1C61.6 454.1 65.3 460.6 60.3 465.2"/><path class="l" d="M62.4 460.1C61.8 465.1 56.6 466.8 53.8 462.5"/><path class="l" d="M56.8 464.3C53.6 463 53.2 459.2 56.4 457.8"/><path class="l" d="M57.2 461L57 460.7L57 460.4L57.2 460L57.7 459.8L58.2 460L58.6 460.5L58.6 461.2L58.1 461.8L57.3 462L56.5 461.7L56 460.9L56.1 459.9L56.8 459.1L57.8 458.8L58.9 459.3L59.6 460.4L59.4 461.6L58.6 462.7L57.2 463L55.8 462.4L55 461.1L55.2 459.5"/><path class="p" d="M55.1 647.3C56.7 636.9 64.2 635.9 66.8 641.2Q68.3 643.1 67.6 646.1Q68.8 648.9 67.7 651.1C66.2 656.8 58.6 657.2 55.1 647.3Z"/><path class="p" d="M52 653.2C61.4 650.7 65.1 656.6 61.5 660.8Q60.4 662.8 57.7 663.4Q55.7 665.5 53.4 665.3C48 666.2 44.8 660 52 653.2Z"/><path class="p" d="M45.6 653C52.4 660.6 48.5 667.1 42.9 666Q40.5 666.1 38.7 663.8Q35.8 663 34.9 660.8C31.6 656.2 36 649.9 45.6 653Z"/><path class="p" d="M43 646.9C38.9 655.6 31.6 654.7 30.5 649.3Q29.6 647.3 30.9 644.8Q30.5 642 32 640.4C34.9 635.8 42 637.3 43 646.9Z"/><path class="p" d="M46.3 642.4C36.2 644.5 32.7 638 36.7 633.8Q37.9 631.8 40.9 631.3Q43 629.3 45.4 629.5C51.2 629 54.1 635.7 46.3 642.4Z"/><path class="p" d="M52.6 642.9C46 635.3 49.8 629.6 55.2 631.1Q57.5 631.3 59.3 633.6Q62 634.5 62.9 636.6C66.1 641.3 61.8 646.7 52.6 642.9Z"/><path class="p" d="M51 650.4C58.4 646.7 61.7 650.5 59.1 654.3Q58.4 656 56.2 656.9Q54.8 658.9 53 659.2C48.7 660.9 45.8 656.8 51 650.4Z"/><path class="p" d="M46.8 650.3C51.9 657.4 48.7 661.3 44.3 659.2Q42.4 658.7 41 656.5Q38.8 655.3 38.1 653.5C35.6 649.3 39.2 645.7 46.8 650.3Z"/><path class="p" d="M46.7 645.6C39.6 650.2 35.6 646.7 37.7 642.5Q38.2 640.6 40.4 639.4Q41.6 637.3 43.4 636.7C47.6 634.6 51.2 638.5 46.7 645.6Z"/><path class="p" d="M51.3 645.6C46.4 638.1 49.9 634.1 54.4 636.5Q56.3 637.1 57.6 639.3Q59.8 640.6 60.4 642.5C62.7 646.9 58.8 650.5 51.3 645.6Z"/><path class="l" d="M54.9 646.3C54.1 653.5 46.4 655.1 43.8 648.4"/><path class="l" d="M48.6 653C43.4 650.9 43.4 644.8 48.9 643.6"/><path class="l" d="M45.3 646.3C47.7 643 52.1 644 52.4 648.1"/><path class="l" d="M51 645.7C52.7 647.9 51.5 650.7 48.6 650.4"/><path class="l" d="M49.3 647.8L49.4 648.1L49.3 648.3L49 648.5L48.5 648.4L48.2 648.1L48.2 647.6L48.5 647.1L49 646.9L49.7 647.1L50.1 647.6L50.2 648.4L49.7 649L48.9 649.3L48 649.1L47.4 648.3L47.4 647.3L48 646.4L49.1 646.1L50.2 646.4L50.9 647.4L50.9 648.7L50.2 649.7"/><path class="l" d="M51.9 871.2Q46.5 871.9 43.9 876.5"/><path class="l" d="M51.9 871.2Q57.1 869.5 61.4 872.7"/><path class="l" d="M51.7 870.4Q41.2 863.9 43.9 869.4"/><path class="p" d="M40.9 869C42 875.7 54.6 872.9 52.9 866.4Q46 863.9 40.9 869Z"/><path class="p" d="M49 867.2C50.1 873.9 62.8 871.1 61 864.6Q54.2 862.4 49 867.2Z"/><path class="p" d="M44.2 868.4C45.1 874.2 59.3 871 57.7 865.4Q50.3 863.9 44.2 868.4Z"/><path class="l" d="M42.9 861.8Q44.3 859.8 46.7 861.2"/><path class="l" d="M48.3 860.6Q49.7 858.7 52 860"/><path class="l" d="M53.1 859.5Q54.5 857.6 56.8 858.9"/><path class="p" d="M61.9 1088.3C56.7 1080.1 60.6 1076 65.2 1078.6Q67.3 1079.3 68.7 1081.7Q71 1083.2 71.7 1085.2C74.1 1090 69.9 1093.7 61.9 1088.3Z"/><path class="p" d="M63.5 1092.9C66.4 1083.7 72.1 1084 73.1 1089.3Q73.9 1091.2 73 1093.8Q73.4 1096.5 72.2 1098.3C70.2 1103.2 64.5 1102.4 63.5 1092.9Z"/><path class="p" d="M60.2 1097.5C69.6 1095.5 72.5 1100.9 68.6 1104.6Q67.4 1106.4 64.6 1106.8Q62.5 1108.6 60.4 1108.5C55.1 1109.1 52.7 1103.4 60.2 1097.5Z"/><path class="p" d="M54.2 1096.8C60.4 1104.5 56.8 1109.5 51.7 1107.7Q49.5 1107.3 47.8 1105Q45.2 1103.9 44.3 1101.9C41.3 1097.3 45.3 1092.6 54.2 1096.8Z"/><path class="p" d="M52 1092C49.4 1100.6 43.2 1100.5 41.8 1095.6Q40.8 1093.8 41.7 1091.4Q41.1 1088.8 42.3 1087.1C44.3 1082.5 50.4 1083.1 52 1092Z"/><path class="p" d="M55.4 1087C46.3 1088.9 43.6 1083.5 47.3 1080Q48.5 1078.3 51.2 1077.9Q53.2 1076.2 55.3 1076.4C60.4 1075.9 62.7 1081.4 55.4 1087Z"/><path class="p" d="M60.8 1092.3C62.6 1083.9 67.4 1083.8 68.7 1088.4Q69.5 1090.1 68.9 1092.5Q69.4 1094.9 68.6 1096.5C67.2 1101.1 62.4 1100.8 60.8 1092.3Z"/><path class="p" d="M57.8 1095.4C66.4 1096.9 66.7 1101.9 62.1 1103.3Q60.4 1104.2 57.9 1103.6Q55.5 1104.3 53.8 1103.4C49.1 1102.1 49.3 1097.2 57.8 1095.4Z"/><path class="p" d="M54.8 1092.8C54.8 1101.8 50.2 1102.9 48 1098.4Q46.9 1096.9 47 1094.3Q46 1091.9 46.5 1090C46.9 1085.1 51.6 1084.5 54.8 1092.8Z"/><path class="p" d="M57.2 1089.3C48.7 1089.2 47.5 1084.5 51.8 1082.3Q53.2 1081.2 55.7 1081.3Q58 1080.3 59.8 1080.8C64.5 1081.3 65.1 1086.1 57.2 1089.3Z"/><path class="l" d="M62.8 1089.4C63.9 1096.2 57.1 1099.5 53.2 1094"/><path class="l" d="M58.7 1097C53.4 1096.4 52 1090.8 56.6 1088.4"/><path class="l" d="M54 1091.8C55.5 1088.1 59.7 1087.9 61 1091.6"/><path class="l" d="M59.1 1089.8C61.2 1091.4 60.7 1094.2 58.1 1094.7"/><path class="l" d="M58.1 1092.1L58.2 1092.3L58.1 1092.6L57.9 1092.9L57.5 1092.9L57.1 1092.7L57 1092.2L57.1 1091.7L57.6 1091.4L58.2 1091.4L58.7 1091.7L59 1092.4L58.7 1093.1L58.1 1093.6L57.2 1093.6L56.5 1093L56.2 1092.1L56.6 1091.2L57.4 1090.6L58.5 1090.6L59.4 1091.4L59.7 1092.5L59.3 1093.7"/><path class="p" d="M64.9 1340.9C67.4 1349 62.8 1351.9 59.3 1348.8Q57.8 1348.1 58.3 1346.3Q56.2 1345.9 57 1343.9Q54.8 1343.6 55.3 1341.8C54.4 1337.2 59.2 1334.7 64.9 1340.9Z"/><path class="p" d="M64.8 1337.1C59.6 1343.8 54.7 1341.7 55.4 1337.1Q54.7 1335.3 56.8 1334.8Q55.8 1332.9 58 1332.4Q57.6 1330.7 58.8 1329.8C62 1326.4 66.7 1328.9 64.8 1337.1Z"/><path class="p" d="M66.4 1335.3C58.8 1337.7 55.9 1333.3 58.7 1329.9Q59.3 1328.4 61.1 1328.9Q61.6 1327.3 63.2 1327.6Q63.5 1325.7 65.2 1326C69.6 1325.1 72.1 1329.8 66.4 1335.3Z"/><path class="p" d="M70.1 1335.1C63.8 1330.3 65.8 1325.1 70.2 1325.4Q71.8 1324.8 72.4 1326.7Q74.2 1325.7 74.7 1327.7Q76.3 1327.1 77.1 1328.3C80.4 1331.4 78 1336.4 70.1 1335.1Z"/><path class="p" d="M72.3 1337.1C70.8 1329.8 75.5 1327.4 78.4 1330.4Q80 1331 79.1 1332.7Q80.7 1333.2 80.1 1334.8Q81.7 1335.3 81.4 1336.8C81.7 1341 76.9 1343 72.3 1337.1Z"/><path class="p" d="M72.4 1340.2C76.5 1333.8 81.8 1335.3 82 1339.6Q82.8 1341 80.9 1341.7Q81.7 1343.2 80.2 1343.9Q81.5 1345.6 79.8 1346.3C77.2 1349.5 72 1347.7 72.4 1340.2Z"/><path class="p" d="M70.5 1342.5C78.2 1340.5 81.1 1345.3 78.2 1348.7Q77.6 1350.2 75.8 1349.6Q75.3 1351.4 73.6 1350.8Q73.1 1352.6 71.5 1352.3C67.1 1353 64.6 1348 70.5 1342.5Z"/><path class="p" d="M66.8 1342.7C73.1 1347.6 71 1352.7 66.5 1352.3Q65 1352.6 64.4 1350.9Q62.6 1351.8 62.1 1349.8Q60.4 1350.4 59.7 1349.1C56.5 1346 58.9 1341.1 66.8 1342.7Z"/><path class="p" d="M66.6 1338.7C64.6 1344.6 60.7 1344.3 60 1341Q59.3 1339.9 60.4 1339.1Q59.5 1338 60.6 1337.1Q59.8 1336 60.6 1335.1C62 1332 65.8 1332.6 66.6 1338.7Z"/><path class="p" d="M67.9 1337C61.6 1337.6 60.2 1334 63.1 1331.9Q63.8 1330.6 65.1 1331.5Q65.7 1330.3 67 1330.9Q67.7 1329.7 68.8 1330.1C72.4 1330.1 73.4 1333.9 67.9 1337Z"/><path class="p" d="M69.6 1337.3C65.4 1333 67.4 1329.8 70.5 1330.6Q71.7 1330.6 72 1331.9Q73.2 1331.7 73.5 1332.9Q74.9 1332.6 75.3 1333.7C77.3 1336.3 75.1 1339.4 69.6 1337.3Z"/><path class="p" d="M70.4 1339C72.1 1332.9 75.9 1333 76.7 1336.4Q77.3 1337.4 76.3 1338.3Q77.5 1339.4 76.2 1340.3Q77.3 1341.4 76.4 1342.3C75.2 1345.6 71.4 1345.2 70.4 1339Z"/><path class="p" d="M69.4 1340.6C75.1 1339.3 77 1342.8 74.7 1345.2Q74.1 1346.1 72.9 1345.8Q72.7 1347.3 71.3 1346.6Q70.8 1347.7 69.8 1347.6C66.5 1348 64.9 1344.4 69.4 1340.6Z"/><path class="p" d="M67.6 1340.6C71.7 1344.5 69.9 1348.1 66.7 1347.6Q65.5 1347.9 65.3 1346.4Q64 1347 63.7 1345.6Q62.5 1346 62 1344.9C60 1342.5 62.1 1339.1 67.6 1340.6Z"/><path class="g" d="M68.5 1339.3L68.6 1341.9"/><circle class="gd" cx="68.6" cy="1341.9" r="1.1"/><path class="g" d="M68.2 1339.1L67.1 1340"/><circle class="gd" cx="67.1" cy="1340" r="1.1"/><path class="g" d="M68.1 1339L66.1 1339.8"/><circle class="gd" cx="66.1" cy="1339.8" r="1.1"/><path class="g" d="M68.4 1339.3L68.1 1340.4"/><circle class="gd" cx="68.1" cy="1340.4" r="1.1"/><path class="g" d="M68.6 1338.5L68.9 1337.4"/><circle class="gd" cx="68.9" cy="1337.4" r="1.1"/><path class="g" d="M68.9 1339L69.8 1339.4"/><circle class="gd" cx="69.8" cy="1339.4" r="1.1"/><path class="g" d="M68.9 1338.9L70.6 1338.8"/><circle class="gd" cx="70.6" cy="1338.8" r="1.1"/><path class="g" d="M68.5 1338.5L68.3 1336.6"/><circle class="gd" cx="68.3" cy="1336.6" r="1.1"/><path class="g" d="M68.9 1338.8L70.4 1338.6"/><circle class="gd" cx="70.4" cy="1338.6" r="1.1"/><path class="g" d="M68.3 1339.2L67 1340.9"/><circle class="gd" cx="67" cy="1340.9" r="1.1"/><path class="g" d="M68.9 1338.9L70.5 1338.9"/><circle class="gd" cx="70.5" cy="1338.9" r="1.1"/><path class="g" d="M68.5 1338.5L68.6 1336.6"/><circle class="gd" cx="68.6" cy="1336.6" r="1.1"/><path class="g" d="M68.1 1338.9L65.6 1339.1"/><circle class="gd" cx="65.6" cy="1339.1" r="1.1"/><path class="g" d="M68.1 1339.1L66.1 1340"/><circle class="gd" cx="66.1" cy="1340" r="1.1"/><path class="g" d="M68.2 1339.1L67.3 1339.8"/><circle class="gd" cx="67.3" cy="1339.8" r="1.1"/><path class="g" d="M68.2 1339.2L67.2 1340"/><circle class="gd" cx="67.2" cy="1340" r="1.1"/><path class="p" d="M79.4 1569.9C87 1573.2 86.3 1577.8 81.7 1578.2Q80 1578.6 77.8 1577.6Q75.4 1577.6 74 1576.5C69.9 1574.3 71.1 1569.8 79.4 1569.9Z"/><path class="p" d="M75.9 1566.8C76.7 1574.3 72.3 1576 69.8 1572.6Q68.6 1571.5 68.4 1569.3Q67.2 1567.5 67.5 1565.8C67.5 1561.6 72 1560.3 75.9 1566.8Z"/><path class="p" d="M77.2 1561.8C70.2 1565.8 66.7 1562.3 68.9 1558.4Q69.5 1556.7 71.6 1555.6Q72.8 1553.6 74.6 1553.2C78.7 1551.3 81.9 1555.1 77.2 1561.8Z"/><path class="p" d="M81.9 1560.7C75.2 1556.9 76.4 1552.4 80.7 1552.4Q82.4 1552.1 84.2 1553.3Q86.4 1553.4 87.6 1554.6C91.1 1557.1 89.5 1561.5 81.9 1560.7Z"/><path class="p" d="M85 1563.9C84.2 1556.1 88.5 1554.6 90.9 1558.2Q92.1 1559.4 92.2 1561.7Q93.3 1563.6 93 1565.3C93.1 1569.6 88.7 1570.7 85 1563.9Z"/><path class="p" d="M83.4 1569C90.1 1565.6 93.2 1569.1 91 1572.6Q90.3 1574.1 88.4 1575Q87.1 1576.8 85.5 1577.1C81.6 1578.6 78.8 1574.8 83.4 1569Z"/><path class="p" d="M78.2 1566.4C80 1573 76.7 1575 74 1572.2Q72.8 1571.3 72.4 1569.4Q71.1 1567.9 71.1 1566.4C70.3 1562.7 73.9 1561.1 78.2 1566.4Z"/><path class="p" d="M78.9 1563.3C72.6 1566.3 70 1563.1 72.2 1560Q72.9 1558.6 74.8 1557.8Q76 1556.3 77.5 1556C81.1 1554.7 83.5 1558 78.9 1563.3Z"/><path class="p" d="M82.6 1564.1C80.6 1557.2 84.2 1555.1 87 1557.9Q88.3 1558.7 88.8 1560.7Q90.2 1562.3 90.2 1563.8C91 1567.7 87.2 1569.6 82.6 1564.1Z"/><path class="p" d="M81.7 1567.4C88 1565.4 90.3 1568.9 87.9 1571.7Q87.1 1573 85.2 1573.5Q83.9 1574.9 82.4 1574.9C78.8 1575.7 76.8 1572 81.7 1567.4Z"/><path class="l" d="M75.7 1564.7C78.3 1559.7 84.3 1560.8 84.3 1566.4"/><path class="l" d="M82.1 1561.7C85.3 1564.7 83.5 1569.1 79.3 1568.4"/><path class="l" d="M82.7 1567.5C79.9 1569.2 77 1567.2 78 1564.2"/><path class="l" d="M78.3 1566.3C77.7 1564.2 79.4 1562.5 81.4 1563.5"/><path class="l" d="M80.1 1565.2L80.2 1565L80.3 1564.9L80.6 1564.8L80.9 1565L81 1565.3L80.9 1565.7L80.6 1566L80.1 1566L79.7 1565.7L79.5 1565.2L79.7 1564.6L80.2 1564.2L80.9 1564.3L81.4 1564.7L81.6 1565.4L81.4 1566.1L80.7 1566.6L79.8 1566.6L79.1 1566L78.9 1565.1L79.2 1564.2L80.1 1563.6"/><path class="s2" d="M90 50.7C88.6 53.2 84 60.7 81.7 65.7C79.3 70.7 76.8 78.2 75.8 80.7"/><path class="p" d="M88.6 53.3C91.3 55.2 92.5 60.9 91.2 64.5C88.4 61.8 86.9 56.3 88.6 53.3Z"/><path class="v" d="M88.6 53.3Q89.8 58.9 91 63.6"/><path class="p" d="M88.6 53.3C86.7 56.1 81.1 57.4 77.4 56.2C80 53.4 85.5 51.7 88.6 53.3Z"/><path class="v" d="M88.6 53.3Q83 54.7 78.3 56"/><path class="p" d="M81.4 66.3C83.8 68 84.7 72.8 83.6 75.9C81.3 73.6 80 68.9 81.4 66.3Z"/><path class="v" d="M81.4 66.3Q82.4 71.1 83.4 75.1"/><path class="p" d="M81.4 66.3C80.1 69 75.6 70.7 72.3 70.2C74.2 67.5 78.6 65.4 81.4 66.3Z"/><path class="v" d="M81.4 66.3Q76.9 68.3 73.1 69.9"/><path class="p" d="M76.4 79.2C78.5 80.3 79.7 84.2 79 86.9C76.9 85.2 75.5 81.4 76.4 79.2Z"/><path class="v" d="M76.4 79.2Q77.6 83 78.8 86.3"/><path class="p" d="M76.4 79.2C75.7 81.5 72.1 83.4 69.4 83.3C70.6 80.9 74 78.7 76.4 79.2Z"/><path class="v" d="M76.4 79.2Q72.9 81.3 70 83"/><path class="p" d="M75.9 80.6C76.7 83 75.1 86.8 72.8 88.5C72.3 85.7 73.7 81.8 75.9 80.6Z"/><path class="v" d="M75.9 80.6Q74.4 84.6 73.1 87.9"/><path class="s2" d="M89.5 117.2C88.1 119.7 83.5 127.2 81.2 132.2C78.8 137.2 76.4 144.7 75.4 147.2"/><path class="p" d="M88 119.7C90.8 121.7 91.8 127.4 90.5 131C87.8 128.3 86.3 122.7 88 119.7Z"/><path class="v" d="M88 119.7Q89.1 125.4 90.3 130.1"/><path class="p" d="M88 119.7C86 122.5 80.4 123.5 76.8 122.1C79.5 119.4 85.1 118 88 119.7Z"/><path class="v" d="M88 119.7Q82.4 120.7 77.7 121.9"/><path class="p" d="M80.9 132.8C83.4 134.2 84.8 138.9 84 142.1C81.5 140 79.7 135.4 80.9 132.8Z"/><path class="v" d="M80.9 132.8Q82.4 137.4 83.8 141.3"/><path class="p" d="M80.9 132.8C79.8 135.5 75.4 137.5 72.1 137.2C73.8 134.4 78.1 132 80.9 132.8Z"/><path class="v" d="M80.9 132.8Q76.5 135 72.8 136.8"/><path class="p" d="M76 145.6C78.2 146.6 79.7 150.3 79.4 153C77.1 151.5 75.3 147.9 76 145.6Z"/><path class="v" d="M76 145.6Q77.7 149.3 79.1 152.4"/><path class="p" d="M76 145.6C75.1 147.8 71.4 149.5 68.7 149.2C70.1 146.9 73.7 144.9 76 145.6Z"/><path class="v" d="M76 145.6Q72.3 147.3 69.2 148.9"/><path class="p" d="M75.4 147.1C76.3 149.4 74.7 153.3 72.4 154.9C71.9 152.2 73.2 148.2 75.4 147.1Z"/><path class="v" d="M75.4 147.1Q73.8 151 72.7 154.3"/><path class="s2" d="M80.7 349.2C79.4 351.7 75.3 359.2 73.3 364.2C71.3 369.2 69.4 376.7 68.7 379.2"/><path class="p" d="M79.4 351.8C82 353.9 82.8 359.6 81.4 363.1C78.8 360.3 77.6 354.7 79.4 351.8Z"/><path class="v" d="M79.4 351.8Q80.5 357.4 81.2 362.2"/><path class="p" d="M79.4 351.8C77.6 354.7 72 356.1 68.3 355C70.8 352.1 76.3 350.3 79.4 351.8Z"/><path class="v" d="M79.4 351.8Q73.8 353.4 69.2 354.7"/><path class="p" d="M73.1 364.8C75.7 366.2 77.3 370.8 76.6 374C74 372.1 72 367.5 73.1 364.8Z"/><path class="v" d="M73.1 364.8Q74.8 369.4 76.3 373.3"/><path class="p" d="M73.1 364.8C71.8 367.4 67.2 369.1 64 368.5C65.9 365.8 70.4 363.8 73.1 364.8Z"/><path class="v" d="M73.1 364.8Q68.5 366.6 64.7 368.2"/><path class="p" d="M69.1 377.7C71.3 378.7 72.8 382.5 72.3 385.2C70.1 383.6 68.3 380 69.1 377.7Z"/><path class="v" d="M69.1 377.7Q70.7 381.4 72.1 384.6"/><path class="p" d="M69.1 377.7C68.3 380 64.7 381.8 62 381.6C63.3 379.2 66.8 377.1 69.1 377.7Z"/><path class="v" d="M69.1 377.7Q65.6 379.6 62.6 381.3"/><path class="p" d="M68.7 379.2C69.7 381.4 68.3 385.4 66.2 387.2C65.5 384.5 66.6 380.4 68.7 379.2Z"/><path class="v" d="M68.7 379.2Q67.6 383.2 66.4 386.5"/><path class="s2" d="M59.1 785.1C57.7 787.6 52.9 795.1 50.5 800.1C48 805.1 45.4 812.6 44.4 815.1"/><path class="p" d="M57.6 787.7C60.5 789.4 62.1 794.9 61 798.6C58.1 796.2 56.2 790.8 57.6 787.7Z"/><path class="v" d="M57.6 787.7Q59.4 793.1 60.8 797.8"/><path class="p" d="M57.6 787.7C55.9 790.6 50.3 792.2 46.6 791.2C49.1 788.2 54.5 786.3 57.6 787.7Z"/><path class="v" d="M57.6 787.7Q52.1 789.5 47.5 790.9"/><path class="p" d="M50.2 800.7C52.7 802.1 54.2 806.8 53.5 810C50.9 808 49.1 803.4 50.2 800.7Z"/><path class="v" d="M50.2 800.7Q51.8 805.3 53.2 809.2"/><path class="p" d="M50.2 800.7C49 803.4 44.5 805.3 41.3 804.8C43 802.1 47.4 799.9 50.2 800.7Z"/><path class="v" d="M50.2 800.7Q45.7 802.7 42 804.5"/><path class="p" d="M45 813.6C47.1 814.7 48.4 818.5 47.8 821.2C45.6 819.6 44.1 815.8 45 813.6Z"/><path class="v" d="M45 813.6Q46.5 817.3 47.6 820.6"/><path class="p" d="M45 813.6C44.3 815.9 40.7 817.8 38 817.7C39.2 815.3 42.6 813.1 45 813.6Z"/><path class="v" d="M45 813.6Q41.5 815.6 38.5 817.4"/><path class="p" d="M44.4 815C45.2 817.4 43.5 821.2 41.3 822.8C40.8 820.1 42.2 816.1 44.4 815Z"/><path class="v" d="M44.4 815Q42.9 819 41.5 822.2"/><path class="s2" d="M77.9 1362.5C76.4 1365 71.4 1372.5 68.8 1377.5C66.2 1382.5 63.3 1390 62.3 1392.5"/><path class="p" d="M76.3 1365.1C79 1367.1 79.9 1372.8 78.5 1376.4C75.8 1373.6 74.5 1368 76.3 1365.1Z"/><path class="v" d="M76.3 1365.1Q77.4 1370.7 78.3 1375.5"/><path class="p" d="M76.3 1365.1C74.4 1367.9 68.8 1369.1 65.1 1367.9C67.7 1365.1 73.3 1363.5 76.3 1365.1Z"/><path class="v" d="M76.3 1365.1Q70.7 1366.6 66 1367.7"/><path class="p" d="M68.5 1378.1C71.1 1379.5 72.5 1384.2 71.8 1387.4C69.2 1385.4 67.4 1380.8 68.5 1378.1Z"/><path class="v" d="M68.5 1378.1Q70 1382.8 71.5 1386.6"/><path class="p" d="M68.5 1378.1C67.1 1380.7 62.5 1382.2 59.3 1381.5C61.3 1378.9 65.8 1377.1 68.5 1378.1Z"/><path class="v" d="M68.5 1378.1Q63.9 1379.9 60 1381.2"/><path class="p" d="M62.9 1391C64.9 1392.3 65.9 1396.2 65.1 1398.8C63 1397 61.8 1393.1 62.9 1391Z"/><path class="v" d="M62.9 1391Q64 1394.9 64.9 1398.2"/><path class="p" d="M62.9 1391C62 1393.2 58.3 1394.9 55.6 1394.6C57 1392.3 60.6 1390.3 62.9 1391Z"/><path class="v" d="M62.9 1391Q59.3 1392.9 56.2 1394.3"/><path class="p" d="M62.3 1392.4C63.1 1394.8 61.2 1398.6 58.9 1400.2C58.5 1397.4 60 1393.5 62.3 1392.4Z"/><path class="v" d="M62.3 1392.4Q60.6 1396.3 59.2 1399.5"/></svg>